<svg width="488" height="254" viewBox="0 0 488 254" fill="none" xmlns="http://www.w3.org/2000/svg">
<g filter="url(#filter0_d_428_3792)">
<rect x="4" y="4" width="472" height="238" rx="20" fill="white"/>
<path opacity="0.6" d="M45.892 179.444H40.654L39.754 182H37.612L42.094 169.472H44.47L48.952 182H46.792L45.892 179.444ZM45.316 177.77L43.282 171.956L41.23 177.77H45.316ZM57.6286 173.54C57.9766 173.084 58.4506 172.7 59.0506 172.388C59.6506 172.076 60.3286 171.92 61.0846 171.92C61.9486 171.92 62.7346 172.136 63.4426 172.568C64.1626 172.988 64.7266 173.582 65.1346 174.35C65.5426 175.118 65.7466 176 65.7466 176.996C65.7466 177.992 65.5426 178.886 65.1346 179.678C64.7266 180.458 64.1626 181.07 63.4426 181.514C62.7346 181.946 61.9486 182.162 61.0846 182.162C60.3286 182.162 59.6566 182.012 59.0686 181.712C58.4806 181.4 58.0006 181.016 57.6286 180.56V186.716H55.5766V172.082H57.6286V173.54ZM63.6586 176.996C63.6586 176.312 63.5146 175.724 63.2266 175.232C62.9506 174.728 62.5786 174.35 62.1106 174.098C61.6546 173.834 61.1626 173.702 60.6346 173.702C60.1186 173.702 59.6266 173.834 59.1586 174.098C58.7026 174.362 58.3306 174.746 58.0426 175.25C57.7666 175.754 57.6286 176.348 57.6286 177.032C57.6286 177.716 57.7666 178.316 58.0426 178.832C58.3306 179.336 58.7026 179.72 59.1586 179.984C59.6266 180.248 60.1186 180.38 60.6346 180.38C61.1626 180.38 61.6546 180.248 62.1106 179.984C62.5786 179.708 62.9506 179.312 63.2266 178.796C63.5146 178.28 63.6586 177.68 63.6586 176.996ZM69.8278 168.68V182H67.7758V168.68H69.8278ZM71.8379 176.996C71.8379 176 72.0419 175.118 72.4499 174.35C72.8699 173.582 73.4339 172.988 74.1419 172.568C74.8619 172.136 75.6539 171.92 76.5179 171.92C77.2979 171.92 77.9759 172.076 78.5519 172.388C79.1399 172.688 79.6079 173.066 79.9559 173.522V172.082H82.0259V182H79.9559V180.524C79.6079 180.992 79.1339 181.382 78.5339 181.694C77.9339 182.006 77.2499 182.162 76.4819 182.162C75.6299 182.162 74.8499 181.946 74.1419 181.514C73.4339 181.07 72.8699 180.458 72.4499 179.678C72.0419 178.886 71.8379 177.992 71.8379 176.996ZM79.9559 177.032C79.9559 176.348 79.8119 175.754 79.5239 175.25C79.2479 174.746 78.8819 174.362 78.4259 174.098C77.9699 173.834 77.4779 173.702 76.9499 173.702C76.4219 173.702 75.9299 173.834 75.4739 174.098C75.0179 174.35 74.6459 174.728 74.3579 175.232C74.0819 175.724 73.9439 176.312 73.9439 176.996C73.9439 177.68 74.0819 178.28 74.3579 178.796C74.6459 179.312 75.0179 179.708 75.4739 179.984C75.9419 180.248 76.4339 180.38 76.9499 180.38C77.4779 180.38 77.9699 180.248 78.4259 179.984C78.8819 179.72 79.2479 179.336 79.5239 178.832C79.8119 178.316 79.9559 177.716 79.9559 177.032ZM87.1151 173.756V179.246C87.1151 179.618 87.1991 179.888 87.3671 180.056C87.5471 180.212 87.8471 180.29 88.2671 180.29H89.5271V182H87.9071C86.9831 182 86.2751 181.784 85.7831 181.352C85.2911 180.92 85.0451 180.218 85.0451 179.246V173.756H83.8751V172.082H85.0451V169.616H87.1151V172.082H89.5271V173.756H87.1151ZM95.5764 173.756H93.7404V182H91.6704V173.756H90.5004V172.082H91.6704V171.38C91.6704 170.24 91.9704 169.412 92.5704 168.896C93.1824 168.368 94.1364 168.104 95.4324 168.104V169.814C94.8084 169.814 94.3704 169.934 94.1184 170.174C93.8664 170.402 93.7404 170.804 93.7404 171.38V172.082H95.5764V173.756ZM101.697 182.162C100.761 182.162 99.9149 181.952 99.1589 181.532C98.4029 181.1 97.8089 180.5 97.3769 179.732C96.9449 178.952 96.7289 178.052 96.7289 177.032C96.7289 176.024 96.9509 175.13 97.3949 174.35C97.8389 173.57 98.4449 172.97 99.2129 172.55C99.9809 172.13 100.839 171.92 101.787 171.92C102.735 171.92 103.593 172.13 104.361 172.55C105.129 172.97 105.735 173.57 106.179 174.35C106.623 175.13 106.845 176.024 106.845 177.032C106.845 178.04 106.617 178.934 106.161 179.714C105.705 180.494 105.081 181.1 104.289 181.532C103.509 181.952 102.645 182.162 101.697 182.162ZM101.697 180.38C102.225 180.38 102.717 180.254 103.173 180.002C103.641 179.75 104.019 179.372 104.307 178.868C104.595 178.364 104.739 177.752 104.739 177.032C104.739 176.312 104.601 175.706 104.325 175.214C104.049 174.71 103.683 174.332 103.227 174.08C102.771 173.828 102.279 173.702 101.751 173.702C101.223 173.702 100.731 173.828 100.275 174.08C99.8309 174.332 99.4769 174.71 99.2129 175.214C98.9489 175.706 98.8169 176.312 98.8169 177.032C98.8169 178.1 99.0869 178.928 99.6269 179.516C100.179 180.092 100.869 180.38 101.697 180.38ZM110.925 173.522C111.225 173.018 111.621 172.628 112.113 172.352C112.617 172.064 113.211 171.92 113.895 171.92V174.044H113.373C112.569 174.044 111.957 174.248 111.537 174.656C111.129 175.064 110.925 175.772 110.925 176.78V182H108.873V172.082H110.925V173.522ZM127.788 171.92C128.568 171.92 129.264 172.082 129.876 172.406C130.5 172.73 130.986 173.21 131.334 173.846C131.694 174.482 131.874 175.25 131.874 176.15V182H129.84V176.456C129.84 175.568 129.618 174.89 129.174 174.422C128.73 173.942 128.124 173.702 127.356 173.702C126.588 173.702 125.976 173.942 125.52 174.422C125.076 174.89 124.854 175.568 124.854 176.456V182H122.82V176.456C122.82 175.568 122.598 174.89 122.154 174.422C121.71 173.942 121.104 173.702 120.336 173.702C119.568 173.702 118.956 173.942 118.5 174.422C118.056 174.89 117.834 175.568 117.834 176.456V182H115.782V172.082H117.834V173.216C118.17 172.808 118.596 172.49 119.112 172.262C119.628 172.034 120.18 171.92 120.768 171.92C121.56 171.92 122.268 172.088 122.892 172.424C123.516 172.76 123.996 173.246 124.332 173.882C124.632 173.282 125.1 172.808 125.736 172.46C126.372 172.1 127.056 171.92 127.788 171.92ZM152.481 172.082L149.403 182H147.243L145.245 174.674L143.247 182H141.087L137.991 172.082H140.079L142.149 180.056L144.255 172.082H146.397L148.413 180.02L150.465 172.082H152.481ZM159.144 171.92C159.9 171.92 160.572 172.082 161.16 172.406C161.76 172.73 162.228 173.21 162.564 173.846C162.912 174.482 163.086 175.25 163.086 176.15V182H161.052V176.456C161.052 175.568 160.83 174.89 160.386 174.422C159.942 173.942 159.336 173.702 158.568 173.702C157.8 173.702 157.188 173.942 156.732 174.422C156.288 174.89 156.066 175.568 156.066 176.456V182H154.014V168.68H156.066V173.234C156.414 172.814 156.852 172.49 157.38 172.262C157.92 172.034 158.508 171.92 159.144 171.92ZM174.794 176.798C174.794 177.17 174.77 177.506 174.722 177.806H167.144C167.204 178.598 167.498 179.234 168.026 179.714C168.554 180.194 169.202 180.434 169.97 180.434C171.074 180.434 171.854 179.972 172.31 179.048H174.524C174.224 179.96 173.678 180.71 172.886 181.298C172.106 181.874 171.134 182.162 169.97 182.162C169.022 182.162 168.17 181.952 167.414 181.532C166.67 181.1 166.082 180.5 165.65 179.732C165.23 178.952 165.02 178.052 165.02 177.032C165.02 176.012 165.224 175.118 165.632 174.35C166.052 173.57 166.634 172.97 167.378 172.55C168.134 172.13 168.998 171.92 169.97 171.92C170.906 171.92 171.74 172.124 172.472 172.532C173.204 172.94 173.774 173.516 174.182 174.26C174.59 174.992 174.794 175.838 174.794 176.798ZM172.652 176.15C172.64 175.394 172.37 174.788 171.842 174.332C171.314 173.876 170.66 173.648 169.88 173.648C169.172 173.648 168.566 173.876 168.062 174.332C167.558 174.776 167.258 175.382 167.162 176.15H172.652ZM178.865 173.522C179.165 173.018 179.561 172.628 180.053 172.352C180.557 172.064 181.151 171.92 181.835 171.92V174.044H181.313C180.509 174.044 179.897 174.248 179.477 174.656C179.069 175.064 178.865 175.772 178.865 176.78V182H176.813V172.082H178.865V173.522ZM192.811 176.798C192.811 177.17 192.787 177.506 192.739 177.806H185.161C185.221 178.598 185.515 179.234 186.043 179.714C186.571 180.194 187.219 180.434 187.987 180.434C189.091 180.434 189.871 179.972 190.327 179.048H192.541C192.241 179.96 191.695 180.71 190.903 181.298C190.123 181.874 189.151 182.162 187.987 182.162C187.039 182.162 186.187 181.952 185.431 181.532C184.687 181.1 184.099 180.5 183.667 179.732C183.247 178.952 183.037 178.052 183.037 177.032C183.037 176.012 183.241 175.118 183.649 174.35C184.069 173.57 184.651 172.97 185.395 172.55C186.151 172.13 187.015 171.92 187.987 171.92C188.923 171.92 189.757 172.124 190.489 172.532C191.221 172.94 191.791 173.516 192.199 174.26C192.607 174.992 192.811 175.838 192.811 176.798ZM190.669 176.15C190.657 175.394 190.387 174.788 189.859 174.332C189.331 173.876 188.677 173.648 187.897 173.648C187.189 173.648 186.583 173.876 186.079 174.332C185.575 174.776 185.275 175.382 185.179 176.15H190.669ZM208.434 172.082L202.35 186.662H200.226L202.242 181.838L198.336 172.082H200.622L203.412 179.642L206.31 172.082H208.434ZM214.285 182.162C213.349 182.162 212.503 181.952 211.747 181.532C210.991 181.1 210.397 180.5 209.965 179.732C209.533 178.952 209.317 178.052 209.317 177.032C209.317 176.024 209.539 175.13 209.983 174.35C210.427 173.57 211.033 172.97 211.801 172.55C212.569 172.13 213.427 171.92 214.375 171.92C215.323 171.92 216.181 172.13 216.949 172.55C217.717 172.97 218.323 173.57 218.767 174.35C219.211 175.13 219.433 176.024 219.433 177.032C219.433 178.04 219.205 178.934 218.749 179.714C218.293 180.494 217.669 181.1 216.877 181.532C216.097 181.952 215.233 182.162 214.285 182.162ZM214.285 180.38C214.813 180.38 215.305 180.254 215.761 180.002C216.229 179.75 216.607 179.372 216.895 178.868C217.183 178.364 217.327 177.752 217.327 177.032C217.327 176.312 217.189 175.706 216.913 175.214C216.637 174.71 216.271 174.332 215.815 174.08C215.359 173.828 214.867 173.702 214.339 173.702C213.811 173.702 213.319 173.828 212.863 174.08C212.419 174.332 212.065 174.71 211.801 175.214C211.537 175.706 211.405 176.312 211.405 177.032C211.405 178.1 211.675 178.928 212.215 179.516C212.767 180.092 213.457 180.38 214.285 180.38ZM230.443 172.082V182H228.391V180.83C228.067 181.238 227.641 181.562 227.113 181.802C226.597 182.03 226.045 182.144 225.457 182.144C224.677 182.144 223.975 181.982 223.351 181.658C222.739 181.334 222.253 180.854 221.893 180.218C221.545 179.582 221.371 178.814 221.371 177.914V172.082H223.405V177.608C223.405 178.496 223.627 179.18 224.071 179.66C224.515 180.128 225.121 180.362 225.889 180.362C226.657 180.362 227.263 180.128 227.707 179.66C228.163 179.18 228.391 178.496 228.391 177.608V172.082H230.443ZM235.203 173.522C235.503 173.018 235.899 172.628 236.391 172.352C236.895 172.064 237.489 171.92 238.173 171.92V174.044H237.651C236.847 174.044 236.235 174.248 235.815 174.656C235.407 175.064 235.203 175.772 235.203 176.78V182H233.151V172.082H235.203V173.522ZM249.037 182.162C248.101 182.162 247.255 181.952 246.499 181.532C245.743 181.1 245.149 180.5 244.717 179.732C244.285 178.952 244.069 178.052 244.069 177.032C244.069 176.024 244.291 175.13 244.735 174.35C245.179 173.57 245.785 172.97 246.553 172.55C247.321 172.13 248.179 171.92 249.127 171.92C250.075 171.92 250.933 172.13 251.701 172.55C252.469 172.97 253.075 173.57 253.519 174.35C253.963 175.13 254.185 176.024 254.185 177.032C254.185 178.04 253.957 178.934 253.501 179.714C253.045 180.494 252.421 181.1 251.629 181.532C250.849 181.952 249.985 182.162 249.037 182.162ZM249.037 180.38C249.565 180.38 250.057 180.254 250.513 180.002C250.981 179.75 251.359 179.372 251.647 178.868C251.935 178.364 252.079 177.752 252.079 177.032C252.079 176.312 251.941 175.706 251.665 175.214C251.389 174.71 251.023 174.332 250.567 174.08C250.111 173.828 249.619 173.702 249.091 173.702C248.563 173.702 248.071 173.828 247.615 174.08C247.171 174.332 246.817 174.71 246.553 175.214C246.289 175.706 246.157 176.312 246.157 177.032C246.157 178.1 246.427 178.928 246.967 179.516C247.519 180.092 248.209 180.38 249.037 180.38ZM258.265 173.54C258.613 173.084 259.087 172.7 259.687 172.388C260.287 172.076 260.965 171.92 261.721 171.92C262.585 171.92 263.371 172.136 264.079 172.568C264.799 172.988 265.363 173.582 265.771 174.35C266.179 175.118 266.383 176 266.383 176.996C266.383 177.992 266.179 178.886 265.771 179.678C265.363 180.458 264.799 181.07 264.079 181.514C263.371 181.946 262.585 182.162 261.721 182.162C260.965 182.162 260.293 182.012 259.705 181.712C259.117 181.4 258.637 181.016 258.265 180.56V186.716H256.213V172.082H258.265V173.54ZM264.295 176.996C264.295 176.312 264.151 175.724 263.863 175.232C263.587 174.728 263.215 174.35 262.747 174.098C262.291 173.834 261.799 173.702 261.271 173.702C260.755 173.702 260.263 173.834 259.795 174.098C259.339 174.362 258.967 174.746 258.679 175.25C258.403 175.754 258.265 176.348 258.265 177.032C258.265 177.716 258.403 178.316 258.679 178.832C258.967 179.336 259.339 179.72 259.795 179.984C260.263 180.248 260.755 180.38 261.271 180.38C261.799 180.38 262.291 180.248 262.747 179.984C263.215 179.708 263.587 179.312 263.863 178.796C264.151 178.28 264.295 177.68 264.295 176.996ZM269.457 170.768C269.085 170.768 268.773 170.642 268.521 170.39C268.269 170.138 268.143 169.826 268.143 169.454C268.143 169.082 268.269 168.77 268.521 168.518C268.773 168.266 269.085 168.14 269.457 168.14C269.817 168.14 270.123 168.266 270.375 168.518C270.627 168.77 270.753 169.082 270.753 169.454C270.753 169.826 270.627 170.138 270.375 170.39C270.123 170.642 269.817 170.768 269.457 170.768ZM270.465 172.082V182H268.413V172.082H270.465ZM278.163 171.92C278.943 171.92 279.639 172.082 280.251 172.406C280.875 172.73 281.361 173.21 281.709 173.846C282.057 174.482 282.231 175.25 282.231 176.15V182H280.197V176.456C280.197 175.568 279.975 174.89 279.531 174.422C279.087 173.942 278.481 173.702 277.713 173.702C276.945 173.702 276.333 173.942 275.877 174.422C275.433 174.89 275.211 175.568 275.211 176.456V182H273.159V172.082H275.211V173.216C275.547 172.808 275.973 172.49 276.489 172.262C277.017 172.034 277.575 171.92 278.163 171.92ZM285.892 170.768C285.52 170.768 285.208 170.642 284.956 170.39C284.704 170.138 284.578 169.826 284.578 169.454C284.578 169.082 284.704 168.77 284.956 168.518C285.208 168.266 285.52 168.14 285.892 168.14C286.252 168.14 286.558 168.266 286.81 168.518C287.062 168.77 287.188 169.082 287.188 169.454C287.188 169.826 287.062 170.138 286.81 170.39C286.558 170.642 286.252 170.768 285.892 170.768ZM286.9 172.082V182H284.848V172.082H286.9ZM293.896 182.162C292.96 182.162 292.114 181.952 291.358 181.532C290.602 181.1 290.008 180.5 289.576 179.732C289.144 178.952 288.928 178.052 288.928 177.032C288.928 176.024 289.15 175.13 289.594 174.35C290.038 173.57 290.644 172.97 291.412 172.55C292.18 172.13 293.038 171.92 293.986 171.92C294.934 171.92 295.792 172.13 296.56 172.55C297.328 172.97 297.934 173.57 298.378 174.35C298.822 175.13 299.044 176.024 299.044 177.032C299.044 178.04 298.816 178.934 298.36 179.714C297.904 180.494 297.28 181.1 296.488 181.532C295.708 181.952 294.844 182.162 293.896 182.162ZM293.896 180.38C294.424 180.38 294.916 180.254 295.372 180.002C295.84 179.75 296.218 179.372 296.506 178.868C296.794 178.364 296.938 177.752 296.938 177.032C296.938 176.312 296.8 175.706 296.524 175.214C296.248 174.71 295.882 174.332 295.426 174.08C294.97 173.828 294.478 173.702 293.95 173.702C293.422 173.702 292.93 173.828 292.474 174.08C292.03 174.332 291.676 174.71 291.412 175.214C291.148 175.706 291.016 176.312 291.016 177.032C291.016 178.1 291.286 178.928 291.826 179.516C292.378 180.092 293.068 180.38 293.896 180.38ZM306.077 171.92C306.857 171.92 307.553 172.082 308.165 172.406C308.789 172.73 309.275 173.21 309.623 173.846C309.971 174.482 310.145 175.25 310.145 176.15V182H308.111V176.456C308.111 175.568 307.889 174.89 307.445 174.422C307.001 173.942 306.395 173.702 305.627 173.702C304.859 173.702 304.247 173.942 303.791 174.422C303.347 174.89 303.125 175.568 303.125 176.456V182H301.073V172.082H303.125V173.216C303.461 172.808 303.887 172.49 304.403 172.262C304.931 172.034 305.489 171.92 306.077 171.92ZM316.362 182.162C315.582 182.162 314.88 182.024 314.256 181.748C313.644 181.46 313.158 181.076 312.798 180.596C312.438 180.104 312.246 179.558 312.222 178.958H314.346C314.382 179.378 314.58 179.732 314.94 180.02C315.312 180.296 315.774 180.434 316.326 180.434C316.902 180.434 317.346 180.326 317.658 180.11C317.982 179.882 318.144 179.594 318.144 179.246C318.144 178.874 317.964 178.598 317.604 178.418C317.256 178.238 316.698 178.04 315.93 177.824C315.186 177.62 314.58 177.422 314.112 177.23C313.644 177.038 313.236 176.744 312.888 176.348C312.552 175.952 312.384 175.43 312.384 174.782C312.384 174.254 312.54 173.774 312.852 173.342C313.164 172.898 313.608 172.55 314.184 172.298C314.772 172.046 315.444 171.92 316.2 171.92C317.328 171.92 318.234 172.208 318.918 172.784C319.614 173.348 319.986 174.122 320.034 175.106H317.982C317.946 174.662 317.766 174.308 317.442 174.044C317.118 173.78 316.68 173.648 316.128 173.648C315.588 173.648 315.174 173.75 314.886 173.954C314.598 174.158 314.454 174.428 314.454 174.764C314.454 175.028 314.55 175.25 314.742 175.43C314.934 175.61 315.168 175.754 315.444 175.862C315.72 175.958 316.128 176.084 316.668 176.24C317.388 176.432 317.976 176.63 318.432 176.834C318.9 177.026 319.302 177.314 319.638 177.698C319.974 178.082 320.148 178.592 320.16 179.228C320.16 179.792 320.004 180.296 319.692 180.74C319.38 181.184 318.936 181.532 318.36 181.784C317.796 182.036 317.13 182.162 316.362 182.162ZM326.369 176.996C326.369 176 326.573 175.118 326.981 174.35C327.401 173.582 327.965 172.988 328.673 172.568C329.393 172.136 330.185 171.92 331.049 171.92C331.829 171.92 332.507 172.076 333.083 172.388C333.671 172.688 334.139 173.066 334.487 173.522V172.082H336.557V182H334.487V180.524C334.139 180.992 333.665 181.382 333.065 181.694C332.465 182.006 331.781 182.162 331.013 182.162C330.161 182.162 329.381 181.946 328.673 181.514C327.965 181.07 327.401 180.458 326.981 179.678C326.573 178.886 326.369 177.992 326.369 176.996ZM334.487 177.032C334.487 176.348 334.343 175.754 334.055 175.25C333.779 174.746 333.413 174.362 332.957 174.098C332.501 173.834 332.009 173.702 331.481 173.702C330.953 173.702 330.461 173.834 330.005 174.098C329.549 174.35 329.177 174.728 328.889 175.232C328.613 175.724 328.475 176.312 328.475 176.996C328.475 177.68 328.613 178.28 328.889 178.796C329.177 179.312 329.549 179.708 330.005 179.984C330.473 180.248 330.965 180.38 331.481 180.38C332.009 180.38 332.501 180.248 332.957 179.984C333.413 179.72 333.779 179.336 334.055 178.832C334.343 178.316 334.487 177.716 334.487 177.032ZM341.304 173.522C341.604 173.018 342 172.628 342.492 172.352C342.996 172.064 343.59 171.92 344.274 171.92V174.044H343.752C342.948 174.044 342.336 174.248 341.916 174.656C341.508 175.064 341.304 175.772 341.304 176.78V182H339.252V172.082H341.304V173.522ZM355.251 176.798C355.251 177.17 355.227 177.506 355.179 177.806H347.601C347.661 178.598 347.955 179.234 348.483 179.714C349.011 180.194 349.659 180.434 350.427 180.434C351.531 180.434 352.311 179.972 352.767 179.048H354.981C354.681 179.96 354.135 180.71 353.343 181.298C352.563 181.874 351.591 182.162 350.427 182.162C349.479 182.162 348.627 181.952 347.871 181.532C347.127 181.1 346.539 180.5 346.107 179.732C345.687 178.952 345.477 178.052 345.477 177.032C345.477 176.012 345.681 175.118 346.089 174.35C346.509 173.57 347.091 172.97 347.835 172.55C348.591 172.13 349.455 171.92 350.427 171.92C351.363 171.92 352.197 172.124 352.929 172.532C353.661 172.94 354.231 173.516 354.639 174.26C355.047 174.992 355.251 175.838 355.251 176.798ZM353.109 176.15C353.097 175.394 352.827 174.788 352.299 174.332C351.771 173.876 351.117 173.648 350.337 173.648C349.629 173.648 349.023 173.876 348.519 174.332C348.015 174.776 347.715 175.382 347.619 176.15H353.109ZM365.78 180.164L368.588 172.082H370.766L366.986 182H364.538L360.776 172.082H362.972L365.78 180.164ZM371.633 176.996C371.633 176 371.837 175.118 372.245 174.35C372.665 173.582 373.229 172.988 373.937 172.568C374.657 172.136 375.449 171.92 376.313 171.92C377.093 171.92 377.771 172.076 378.347 172.388C378.935 172.688 379.403 173.066 379.751 173.522V172.082H381.821V182H379.751V180.524C379.403 180.992 378.929 181.382 378.329 181.694C377.729 182.006 377.045 182.162 376.277 182.162C375.425 182.162 374.645 181.946 373.937 181.514C373.229 181.07 372.665 180.458 372.245 179.678C371.837 178.886 371.633 177.992 371.633 176.996ZM379.751 177.032C379.751 176.348 379.607 175.754 379.319 175.25C379.043 174.746 378.677 174.362 378.221 174.098C377.765 173.834 377.273 173.702 376.745 173.702C376.217 173.702 375.725 173.834 375.269 174.098C374.813 174.35 374.441 174.728 374.153 175.232C373.877 175.724 373.739 176.312 373.739 176.996C373.739 177.68 373.877 178.28 374.153 178.796C374.441 179.312 374.813 179.708 375.269 179.984C375.737 180.248 376.229 180.38 376.745 180.38C377.273 180.38 377.765 180.248 378.221 179.984C378.677 179.72 379.043 179.336 379.319 178.832C379.607 178.316 379.751 177.716 379.751 177.032ZM386.568 168.68V182H384.516V168.68H386.568ZM398.244 172.082V182H396.192V180.83C395.868 181.238 395.442 181.562 394.914 181.802C394.398 182.03 393.846 182.144 393.258 182.144C392.478 182.144 391.776 181.982 391.152 181.658C390.54 181.334 390.054 180.854 389.694 180.218C389.346 179.582 389.172 178.814 389.172 177.914V172.082H391.206V177.608C391.206 178.496 391.428 179.18 391.872 179.66C392.316 180.128 392.922 180.362 393.69 180.362C394.458 180.362 395.064 180.128 395.508 179.66C395.964 179.18 396.192 178.496 396.192 177.608V172.082H398.244ZM410.042 176.798C410.042 177.17 410.018 177.506 409.97 177.806H402.392C402.452 178.598 402.746 179.234 403.274 179.714C403.802 180.194 404.45 180.434 405.218 180.434C406.322 180.434 407.102 179.972 407.558 179.048H409.772C409.472 179.96 408.926 180.71 408.134 181.298C407.354 181.874 406.382 182.162 405.218 182.162C404.27 182.162 403.418 181.952 402.662 181.532C401.918 181.1 401.33 180.5 400.898 179.732C400.478 178.952 400.268 178.052 400.268 177.032C400.268 176.012 400.472 175.118 400.88 174.35C401.3 173.57 401.882 172.97 402.626 172.55C403.382 172.13 404.246 171.92 405.218 171.92C406.154 171.92 406.988 172.124 407.72 172.532C408.452 172.94 409.022 173.516 409.43 174.26C409.838 174.992 410.042 175.838 410.042 176.798ZM407.9 176.15C407.888 175.394 407.618 174.788 407.09 174.332C406.562 173.876 405.908 173.648 405.128 173.648C404.42 173.648 403.814 173.876 403.31 174.332C402.806 174.776 402.506 175.382 402.41 176.15H407.9ZM411.377 176.996C411.377 176 411.581 175.118 411.989 174.35C412.409 173.582 412.973 172.988 413.681 172.568C414.401 172.136 415.199 171.92 416.075 171.92C416.723 171.92 417.359 172.064 417.983 172.352C418.619 172.628 419.123 173 419.495 173.468V168.68H421.565V182H419.495V180.506C419.159 180.986 418.691 181.382 418.091 181.694C417.503 182.006 416.825 182.162 416.057 182.162C415.193 182.162 414.401 181.946 413.681 181.514C412.973 181.07 412.409 180.458 411.989 179.678C411.581 178.886 411.377 177.992 411.377 176.996ZM419.495 177.032C419.495 176.348 419.351 175.754 419.063 175.25C418.787 174.746 418.421 174.362 417.965 174.098C417.509 173.834 417.017 173.702 416.489 173.702C415.961 173.702 415.469 173.834 415.013 174.098C414.557 174.35 414.185 174.728 413.897 175.232C413.621 175.724 413.483 176.312 413.483 176.996C413.483 177.68 413.621 178.28 413.897 178.796C414.185 179.312 414.557 179.708 415.013 179.984C415.481 180.248 415.973 180.38 416.489 180.38C417.017 180.38 417.509 180.248 417.965 179.984C418.421 179.72 418.787 179.336 419.063 178.832C419.351 178.316 419.495 177.716 419.495 177.032Z" fill="#222222"/>
<path opacity="0.6" d="M46.63 198.606V199.938H45.28V202.746C45.28 203.73 45.082 204.51 44.686 205.086C44.29 205.662 43.69 206.136 42.886 206.508L41.95 205.176C43.054 204.72 43.606 203.904 43.606 202.728V199.938H39.88V203.43C39.88 204.258 39.97 204.96 40.15 205.536C40.342 206.112 40.63 206.604 41.014 207.012C41.398 207.408 41.884 207.744 42.472 208.02C43.06 208.296 43.756 208.542 44.56 208.758L43.912 210.18C41.992 209.736 40.558 208.986 39.61 207.93C38.674 206.862 38.206 205.392 38.206 203.52V199.938H36.82V198.606H46.63ZM52.487 203.754C52.247 203.478 51.977 203.28 51.677 203.16C51.389 203.028 51.059 202.962 50.687 202.962C50.447 202.962 50.213 203.004 49.985 203.088C49.757 203.16 49.559 203.274 49.391 203.43C49.223 203.574 49.085 203.76 48.977 203.988C48.881 204.204 48.833 204.462 48.833 204.762C48.833 205.374 49.001 205.848 49.337 206.184C49.673 206.52 50.105 206.688 50.633 206.688C50.873 206.688 51.101 206.652 51.317 206.58C51.545 206.508 51.743 206.394 51.911 206.238C52.091 206.082 52.229 205.884 52.325 205.644C52.433 205.404 52.487 205.116 52.487 204.78V203.754ZM54.107 210H52.469V207.264C52.289 207.504 52.019 207.702 51.659 207.858C51.311 208.014 50.909 208.092 50.453 208.092C50.021 208.092 49.601 208.02 49.193 207.876C48.797 207.72 48.443 207.498 48.131 207.21C47.831 206.922 47.585 206.568 47.393 206.148C47.213 205.716 47.123 205.218 47.123 204.654C47.123 204.15 47.207 203.706 47.375 203.322C47.555 202.938 47.789 202.62 48.077 202.368C48.377 202.104 48.719 201.906 49.103 201.774C49.487 201.642 49.895 201.576 50.327 201.576C50.759 201.576 51.161 201.648 51.533 201.792C51.905 201.924 52.217 202.128 52.469 202.404V199.938H46.277V198.606H60.569V199.938H54.107V202.602C54.311 202.326 54.611 202.098 55.007 201.918C55.403 201.738 55.853 201.648 56.357 201.648C56.789 201.648 57.191 201.714 57.563 201.846C57.947 201.978 58.277 202.176 58.553 202.44C58.841 202.704 59.069 203.028 59.237 203.412C59.405 203.784 59.489 204.21 59.489 204.69C59.489 205.242 59.399 205.722 59.219 206.13C59.039 206.538 58.793 206.874 58.481 207.138C58.169 207.402 57.803 207.6 57.383 207.732C56.975 207.852 56.543 207.912 56.087 207.912C55.955 207.912 55.793 207.906 55.601 207.894C55.421 207.87 55.283 207.84 55.187 207.804L55.421 206.472C55.517 206.496 55.607 206.508 55.691 206.508C55.787 206.508 55.883 206.508 55.979 206.508C56.483 206.508 56.909 206.364 57.257 206.076C57.605 205.788 57.779 205.32 57.779 204.672C57.779 204.156 57.623 203.754 57.311 203.466C57.011 203.178 56.597 203.034 56.069 203.034C55.421 203.034 54.929 203.232 54.593 203.628C54.269 204.012 54.107 204.528 54.107 205.176V210ZM74.5082 203.826C74.3282 203.646 74.1002 203.508 73.8242 203.412C73.5482 203.316 73.2842 203.268 73.0322 203.268C72.5042 203.268 72.0662 203.424 71.7182 203.736C71.3822 204.036 71.2142 204.51 71.2142 205.158C71.2142 205.626 71.2982 206.052 71.4662 206.436C71.6342 206.82 71.8562 207.174 72.1322 207.498C72.4082 207.81 72.7202 208.092 73.0682 208.344C73.4282 208.584 73.8002 208.806 74.1842 209.01L73.1402 210.234C72.7442 210.018 72.3542 209.778 71.9702 209.514C71.5982 209.25 71.2562 208.956 70.9442 208.632C70.6442 208.296 70.3802 207.936 70.1522 207.552C69.9242 207.156 69.7562 206.73 69.6482 206.274C69.4562 206.334 69.2582 206.382 69.0542 206.418C68.8502 206.442 68.6402 206.454 68.4242 206.454C67.9922 206.454 67.5782 206.394 67.1822 206.274C66.7862 206.154 66.4382 205.974 66.1382 205.734C65.8382 205.482 65.5982 205.17 65.4182 204.798C65.2382 204.414 65.1482 203.964 65.1482 203.448V199.938H63.9782V198.606H81.4202V199.938H79.8542V210H78.1802V203.394C78.0962 203.358 77.9942 203.328 77.8742 203.304C77.7662 203.28 77.6282 203.268 77.4602 203.268C76.9082 203.268 76.5002 203.514 76.2362 204.006C75.9842 204.498 75.8402 205.254 75.8042 206.274H74.1482C74.1482 205.71 74.1842 205.224 74.2562 204.816C74.3282 204.408 74.4122 204.078 74.5082 203.826ZM66.8222 199.938V203.304C66.8222 203.94 66.9782 204.396 67.2902 204.672C67.6022 204.936 68.0042 205.068 68.4962 205.068C68.8922 205.068 69.2342 204.996 69.5222 204.852C69.5462 204.336 69.6482 203.892 69.8282 203.52C70.0202 203.148 70.2602 202.842 70.5482 202.602C70.8482 202.362 71.1842 202.182 71.5562 202.062C71.9402 201.942 72.3422 201.882 72.7622 201.882C73.2302 201.882 73.6622 201.966 74.0582 202.134C74.4542 202.29 74.8082 202.518 75.1202 202.818C75.3362 202.542 75.6242 202.326 75.9842 202.17C76.3442 202.002 76.7342 201.918 77.1542 201.918C77.3582 201.918 77.5502 201.93 77.7302 201.954C77.9222 201.978 78.0722 202.014 78.1802 202.062V199.938H66.8222ZM72.7301 194.412C72.9341 194.304 73.1981 194.214 73.5221 194.142C73.8341 194.058 74.1641 194.016 74.5121 194.016C75.4121 194.016 76.1621 194.244 76.7621 194.7C77.3501 195.156 77.8541 195.78 78.2741 196.572L79.6421 199.164H78.3641L77.1401 197.31C76.7801 196.77 76.4201 196.362 76.0601 196.086C75.6881 195.798 75.1961 195.654 74.5841 195.654C74.3441 195.654 74.1101 195.684 73.8821 195.744C73.6541 195.792 73.4561 195.852 73.2881 195.924L72.7301 194.412ZM89.8841 209.244C89.5001 209.496 89.0201 209.694 88.4441 209.838C87.8681 209.982 87.2261 210.054 86.5181 210.054C85.9061 210.054 85.3241 209.97 84.7721 209.802C84.2201 209.634 83.7281 209.382 83.2961 209.046C82.8761 208.71 82.5401 208.296 82.2881 207.804C82.0361 207.3 81.9101 206.724 81.9101 206.076C81.9101 205.092 82.2161 204.294 82.8281 203.682C83.4521 203.058 84.2741 202.644 85.2941 202.44L87.2021 202.044V199.938H81.0641V198.606H90.6041V199.938H88.8581V203.304L86.6621 203.736C85.7621 203.904 85.0361 204.18 84.4841 204.564C83.9321 204.936 83.6561 205.47 83.6561 206.166C83.6561 206.574 83.7281 206.934 83.8721 207.246C84.0161 207.546 84.2201 207.798 84.4841 208.002C84.7481 208.206 85.0601 208.362 85.4201 208.47C85.7801 208.566 86.1701 208.614 86.5901 208.614C87.0341 208.614 87.5081 208.56 88.0121 208.452C88.5161 208.332 88.9781 208.146 89.3981 207.894L89.8841 209.244ZM96.419 205.734C96.263 205.914 96.005 206.082 95.645 206.238C95.297 206.382 94.871 206.454 94.367 206.454C93.935 206.454 93.527 206.394 93.143 206.274C92.759 206.154 92.423 205.974 92.135 205.734C91.847 205.482 91.619 205.17 91.451 204.798C91.283 204.414 91.199 203.964 91.199 203.448V199.938H90.029V198.606H104.411V199.938H98.075V202.782C98.327 202.506 98.657 202.29 99.065 202.134C99.485 201.978 99.917 201.9 100.361 201.9C100.841 201.9 101.279 201.978 101.675 202.134C102.071 202.278 102.407 202.488 102.683 202.764C102.959 203.028 103.175 203.352 103.331 203.736C103.487 204.12 103.565 204.546 103.565 205.014C103.565 205.566 103.469 206.058 103.277 206.49C103.085 206.91 102.821 207.264 102.485 207.552C102.149 207.84 101.753 208.056 101.297 208.2C100.853 208.344 100.373 208.416 99.857 208.416L99.695 207.012C99.923 207 100.163 206.952 100.415 206.868C100.667 206.784 100.901 206.664 101.117 206.508C101.333 206.34 101.507 206.136 101.639 205.896C101.783 205.644 101.855 205.35 101.855 205.014C101.855 204.45 101.693 204.018 101.369 203.718C101.057 203.418 100.649 203.268 100.145 203.268C99.281 203.268 98.591 203.676 98.075 204.492V210H96.419V205.734ZM92.873 203.304C92.873 203.94 93.017 204.396 93.305 204.672C93.605 204.936 94.019 205.068 94.547 205.068C94.967 205.068 95.339 204.978 95.663 204.798C95.999 204.606 96.251 204.354 96.419 204.042V199.938H92.873V203.304ZM105.552 199.938H103.986V198.606H108.81V199.938H107.226V210H105.552V199.938ZM112.159 199.938V204.168H115.615V199.938H112.159ZM112.159 206.85C112.099 206.922 111.979 206.994 111.799 207.066C111.631 207.138 111.427 207.174 111.187 207.174C110.935 207.174 110.689 207.132 110.449 207.048C110.221 206.952 110.017 206.82 109.837 206.652C109.669 206.484 109.531 206.286 109.423 206.058C109.315 205.818 109.261 205.554 109.261 205.266C109.261 204.918 109.363 204.648 109.567 204.456C109.771 204.264 110.029 204.168 110.341 204.168H110.503V199.938H108.451V198.606H118.873V199.938H117.289V210H115.615V205.518H112.159V206.85ZM115.338 198.696V198.534C115.11 198.33 114.876 198.042 114.636 197.67C114.396 197.286 114.276 196.824 114.276 196.284C114.276 195.9 114.348 195.552 114.492 195.24C114.636 194.916 114.834 194.646 115.086 194.43C115.338 194.202 115.632 194.028 115.968 193.908C116.304 193.788 116.664 193.728 117.048 193.728C117.42 193.728 117.774 193.77 118.11 193.854C118.446 193.926 118.716 194.028 118.92 194.16L118.524 195.402C118.356 195.318 118.176 195.252 117.984 195.204C117.78 195.156 117.57 195.132 117.354 195.132C116.934 195.132 116.592 195.258 116.328 195.51C116.052 195.75 115.914 196.116 115.914 196.608C115.914 196.836 115.95 197.052 116.022 197.256C116.082 197.46 116.16 197.652 116.256 197.832C116.352 198 116.454 198.156 116.562 198.3C116.67 198.432 116.772 198.54 116.868 198.624L115.338 198.696ZM129.19 203.646C129.43 203.79 129.664 204.048 129.892 204.42C130.132 204.78 130.252 205.242 130.252 205.806C130.252 206.25 130.168 206.658 130 207.03C129.832 207.39 129.598 207.702 129.298 207.966C128.998 208.23 128.644 208.434 128.236 208.578C127.828 208.722 127.384 208.794 126.904 208.794C126.388 208.794 125.92 208.722 125.5 208.578C125.092 208.434 124.726 208.242 124.402 208.002C124.09 207.75 123.814 207.462 123.574 207.138C123.346 206.802 123.16 206.442 123.016 206.058L124.222 205.41C124.522 206.034 124.87 206.52 125.266 206.868C125.674 207.216 126.184 207.39 126.796 207.39C127.264 207.39 127.672 207.252 128.02 206.976C128.368 206.688 128.542 206.256 128.542 205.68C128.542 204.984 128.32 204.474 127.876 204.15C127.432 203.814 126.832 203.646 126.076 203.646H125.464V202.296H132.034V199.938H122.566V198.606H135.292V199.938H133.708V210H132.034V203.646H129.19ZM141.224 211.872C140.372 211.8 139.622 211.65 138.974 211.422C138.338 211.194 137.798 210.894 137.354 210.522C136.922 210.162 136.592 209.748 136.364 209.28C136.148 208.8 136.04 208.284 136.04 207.732C136.04 207.252 136.124 206.844 136.292 206.508C136.46 206.16 136.658 205.872 136.886 205.644C136.646 205.404 136.424 205.122 136.22 204.798C136.016 204.474 135.914 204.084 135.914 203.628C135.914 203.292 135.974 202.992 136.094 202.728C136.226 202.464 136.4 202.248 136.616 202.08C136.832 201.9 137.078 201.768 137.354 201.684C137.642 201.588 137.948 201.54 138.272 201.54H140.666V199.938H134.924V198.606H144.392V199.938H142.322V202.872H138.866C138.518 202.872 138.224 202.938 137.984 203.07C137.744 203.19 137.624 203.442 137.624 203.826C137.624 204.042 137.666 204.246 137.75 204.438C137.834 204.618 137.936 204.774 138.056 204.906C138.344 204.75 138.656 204.642 138.992 204.582C139.328 204.522 139.67 204.492 140.018 204.492C140.534 204.492 141.002 204.564 141.422 204.708C141.842 204.852 142.196 205.05 142.484 205.302C142.772 205.554 142.994 205.854 143.15 206.202C143.306 206.55 143.384 206.922 143.384 207.318C143.384 207.702 143.3 208.068 143.132 208.416C142.976 208.752 142.796 209.022 142.592 209.226L141.278 208.434C141.41 208.29 141.518 208.128 141.602 207.948C141.698 207.768 141.746 207.57 141.746 207.354C141.746 207.174 141.71 206.994 141.638 206.814C141.578 206.634 141.476 206.478 141.332 206.346C141.2 206.202 141.02 206.088 140.792 206.004C140.564 205.92 140.288 205.878 139.964 205.878C139.304 205.878 138.77 206.052 138.362 206.4C137.954 206.748 137.75 207.21 137.75 207.786C137.75 208.134 137.81 208.458 137.93 208.758C138.062 209.058 138.278 209.328 138.578 209.568C138.878 209.808 139.274 210.012 139.766 210.18C140.27 210.348 140.894 210.468 141.638 210.54L141.224 211.872ZM145.418 199.938H143.888V198.606H148.622V199.938H147.092V210H145.418V199.938ZM143.132 193.998C143.132 193.758 143.216 193.548 143.384 193.368C143.552 193.176 143.768 193.08 144.032 193.08C144.296 193.08 144.506 193.176 144.662 193.368C144.83 193.548 144.914 193.758 144.914 193.998C144.914 194.25 144.83 194.472 144.662 194.664C144.506 194.856 144.296 194.952 144.032 194.952C143.768 194.952 143.552 194.856 143.384 194.664C143.216 194.472 143.132 194.25 143.132 193.998ZM147.218 194.142C147.218 194.658 147.128 195.108 146.948 195.492C146.78 195.864 146.546 196.176 146.246 196.428C145.958 196.668 145.622 196.848 145.238 196.968C144.866 197.088 144.476 197.148 144.068 197.148C143.612 197.148 143.192 197.082 142.808 196.95C142.412 196.818 142.07 196.626 141.782 196.374C141.482 196.122 141.248 195.81 141.08 195.438C140.912 195.066 140.828 194.634 140.828 194.142H142.304C142.364 194.718 142.532 195.144 142.808 195.42C143.084 195.696 143.492 195.834 144.032 195.834C144.584 195.834 144.992 195.678 145.256 195.366C145.532 195.054 145.694 194.646 145.742 194.142H147.218ZM153.154 199.2C153.442 198.972 153.826 198.792 154.306 198.66C154.798 198.516 155.278 198.444 155.746 198.444C156.214 198.444 156.652 198.51 157.06 198.642C157.468 198.762 157.828 198.942 158.14 199.182C158.452 199.422 158.698 199.728 158.878 200.1C159.058 200.46 159.148 200.88 159.148 201.36C159.148 201.924 159.016 202.398 158.752 202.782C158.5 203.166 158.212 203.46 157.888 203.664C158.176 203.748 158.482 203.814 158.806 203.862C159.13 203.898 159.436 203.916 159.724 203.916C160.096 203.916 160.462 203.874 160.822 203.79C161.194 203.694 161.47 203.58 161.65 203.448V199.938H160.174V198.606H169.372V199.938H167.788V210H166.114V199.938H163.324V210H161.65V205.05C161.314 205.218 160.846 205.302 160.246 205.302C159.994 205.302 159.76 205.284 159.544 205.248C159.328 205.2 159.076 205.116 158.788 204.996L158.752 205.05C158.956 205.278 159.112 205.53 159.22 205.806C159.328 206.07 159.382 206.37 159.382 206.706C159.382 207.666 159.058 208.416 158.41 208.956C157.762 209.484 156.886 209.748 155.782 209.748C155.206 209.748 154.636 209.658 154.072 209.478C153.52 209.286 153.088 209.052 152.776 208.776L153.406 207.588C153.718 207.84 154.048 208.032 154.396 208.164C154.756 208.296 155.164 208.362 155.62 208.362C155.896 208.362 156.16 208.326 156.412 208.254C156.664 208.182 156.88 208.074 157.06 207.93C157.252 207.774 157.402 207.582 157.51 207.354C157.618 207.126 157.672 206.856 157.672 206.544C157.672 205.968 157.492 205.506 157.132 205.158C156.772 204.81 156.202 204.636 155.422 204.636H154.252V203.286H155.242C155.902 203.286 156.43 203.13 156.826 202.818C157.234 202.506 157.438 202.062 157.438 201.486C157.438 200.934 157.252 200.52 156.88 200.244C156.52 199.968 156.094 199.83 155.602 199.83C155.314 199.83 155.002 199.872 154.666 199.956C154.342 200.04 154.036 200.184 153.748 200.388L153.154 199.2ZM178.568 199.938H176.984V210H175.31V205.824C175.13 205.992 174.866 206.142 174.518 206.274C174.182 206.394 173.762 206.454 173.258 206.454C172.838 206.454 172.436 206.394 172.052 206.274C171.668 206.154 171.332 205.974 171.044 205.734C170.756 205.482 170.522 205.17 170.342 204.798C170.174 204.414 170.09 203.964 170.09 203.448V199.938H168.92V198.606H178.568V199.938ZM171.764 203.304C171.764 203.94 171.908 204.396 172.196 204.672C172.496 204.936 172.91 205.068 173.438 205.068C173.858 205.068 174.236 204.978 174.572 204.798C174.92 204.618 175.166 204.396 175.31 204.132V199.938H171.764V203.304ZM184.411 203.754C184.171 203.478 183.901 203.28 183.601 203.16C183.313 203.028 182.983 202.962 182.611 202.962C182.371 202.962 182.137 203.004 181.909 203.088C181.681 203.16 181.483 203.274 181.315 203.43C181.147 203.574 181.009 203.76 180.901 203.988C180.805 204.204 180.757 204.462 180.757 204.762C180.757 205.374 180.925 205.848 181.261 206.184C181.597 206.52 182.029 206.688 182.557 206.688C182.797 206.688 183.025 206.652 183.241 206.58C183.469 206.508 183.667 206.394 183.835 206.238C184.015 206.082 184.153 205.884 184.249 205.644C184.357 205.404 184.411 205.116 184.411 204.78V203.754ZM186.031 210H184.393V207.264C184.213 207.504 183.943 207.702 183.583 207.858C183.235 208.014 182.833 208.092 182.377 208.092C181.945 208.092 181.525 208.02 181.117 207.876C180.721 207.72 180.367 207.498 180.055 207.21C179.755 206.922 179.509 206.568 179.317 206.148C179.137 205.716 179.047 205.218 179.047 204.654C179.047 204.15 179.131 203.706 179.299 203.322C179.479 202.938 179.713 202.62 180.001 202.368C180.301 202.104 180.643 201.906 181.027 201.774C181.411 201.642 181.819 201.576 182.251 201.576C182.683 201.576 183.085 201.648 183.457 201.792C183.829 201.924 184.141 202.128 184.393 202.404V199.938H178.201V198.606H192.493V199.938H186.031V202.602C186.235 202.326 186.535 202.098 186.931 201.918C187.327 201.738 187.777 201.648 188.281 201.648C188.713 201.648 189.115 201.714 189.487 201.846C189.871 201.978 190.201 202.176 190.477 202.44C190.765 202.704 190.993 203.028 191.161 203.412C191.329 203.784 191.413 204.21 191.413 204.69C191.413 205.242 191.323 205.722 191.143 206.13C190.963 206.538 190.717 206.874 190.405 207.138C190.093 207.402 189.727 207.6 189.307 207.732C188.899 207.852 188.467 207.912 188.011 207.912C187.879 207.912 187.717 207.906 187.525 207.894C187.345 207.87 187.207 207.84 187.111 207.804L187.345 206.472C187.441 206.496 187.531 206.508 187.615 206.508C187.711 206.508 187.807 206.508 187.903 206.508C188.407 206.508 188.833 206.364 189.181 206.076C189.529 205.788 189.703 205.32 189.703 204.672C189.703 204.156 189.547 203.754 189.235 203.466C188.935 203.178 188.521 203.034 187.993 203.034C187.345 203.034 186.853 203.232 186.517 203.628C186.193 204.012 186.031 204.528 186.031 205.176V210ZM178.955 194.412C179.159 194.304 179.423 194.214 179.747 194.142C180.059 194.058 180.389 194.016 180.737 194.016C181.637 194.016 182.387 194.244 182.987 194.7C183.575 195.156 184.079 195.78 184.499 196.572L185.867 199.164H184.589L183.365 197.31C183.005 196.77 182.645 196.362 182.285 196.086C181.913 195.798 181.421 195.654 180.809 195.654C180.569 195.654 180.335 195.684 180.107 195.744C179.879 195.792 179.681 195.852 179.513 195.924L178.955 194.412ZM197.468 199.938H195.902V198.606H197.306C197.234 198.486 197.168 198.318 197.108 198.102C197.048 197.886 197.018 197.676 197.018 197.472C197.018 197.028 197.12 196.632 197.324 196.284C197.528 195.924 197.81 195.618 198.17 195.366C198.542 195.114 198.986 194.922 199.502 194.79C200.018 194.658 200.582 194.592 201.194 194.592C202.154 194.592 203.024 194.736 203.804 195.024C204.596 195.3 205.298 195.648 205.91 196.068C206.534 196.488 207.068 196.944 207.512 197.436C207.968 197.928 208.346 198.378 208.646 198.786L208.772 198.966L207.584 199.722L207.35 199.416C206.978 198.948 206.576 198.51 206.144 198.102C205.712 197.682 205.25 197.316 204.758 197.004C204.266 196.692 203.732 196.446 203.156 196.266C202.592 196.086 201.986 195.996 201.338 195.996C200.51 195.996 199.868 196.164 199.412 196.5C198.968 196.836 198.746 197.292 198.746 197.868C198.746 198.036 198.758 198.18 198.782 198.3C198.818 198.408 198.86 198.51 198.908 198.606H200.726V199.938H199.142V210H197.468V199.938ZM204.565 201.522C205.177 201.522 205.681 201.618 206.077 201.81C206.485 202.002 206.809 202.218 207.049 202.458V199.938H200.191V198.606H210.307V199.938H208.723V210H207.049V207.372C206.869 207.564 206.587 207.756 206.203 207.948C205.831 208.128 205.333 208.218 204.709 208.218C204.217 208.218 203.749 208.146 203.305 208.002C202.861 207.846 202.471 207.624 202.135 207.336C201.799 207.036 201.529 206.67 201.325 206.238C201.133 205.794 201.037 205.29 201.037 204.726C201.037 204.21 201.121 203.754 201.289 203.358C201.469 202.962 201.715 202.632 202.027 202.368C202.339 202.092 202.711 201.882 203.143 201.738C203.575 201.594 204.049 201.522 204.565 201.522ZM207.049 204.042C206.857 203.754 206.575 203.496 206.203 203.268C205.831 203.028 205.399 202.908 204.907 202.908C204.271 202.908 203.755 203.07 203.359 203.394C202.975 203.706 202.783 204.174 202.783 204.798C202.783 205.53 202.981 206.052 203.377 206.364C203.773 206.664 204.313 206.814 204.997 206.814C205.273 206.814 205.537 206.772 205.789 206.688C206.041 206.592 206.257 206.466 206.437 206.31C206.629 206.142 206.779 205.95 206.887 205.734C206.995 205.506 207.049 205.266 207.049 205.014V204.042ZM210.613 203.196V201.846H216.751V203.196H216.157C215.497 203.196 214.993 203.352 214.645 203.664C214.309 203.964 214.141 204.36 214.141 204.852C214.141 205.392 214.333 205.788 214.717 206.04C215.101 206.292 215.569 206.418 216.121 206.418C216.625 206.418 217.081 206.316 217.489 206.112C217.909 205.908 218.257 205.638 218.533 205.302V199.938H209.947V198.606H221.791V199.938H220.207V210H218.533V206.94C218.329 207.144 217.999 207.342 217.543 207.534C217.087 207.726 216.565 207.822 215.977 207.822C215.461 207.822 214.981 207.756 214.537 207.624C214.105 207.48 213.727 207.282 213.403 207.03C213.091 206.766 212.845 206.454 212.665 206.094C212.485 205.722 212.395 205.314 212.395 204.87C212.395 204.486 212.479 204.144 212.647 203.844C212.815 203.544 213.019 203.328 213.259 203.196H210.613ZM222.991 199.938H221.425V198.606H226.249V199.938H224.665V210H222.991V199.938ZM231.974 209.316L230.498 210.234L227.078 205.176C226.886 204.9 226.748 204.678 226.664 204.51C226.592 204.33 226.556 204.168 226.556 204.024C226.556 203.748 226.664 203.538 226.88 203.394C227.096 203.238 227.36 203.16 227.672 203.16L228.032 203.628C228.164 203.796 228.308 203.922 228.464 204.006C228.62 204.09 228.806 204.132 229.022 204.132C229.442 204.132 229.802 203.97 230.102 203.646C230.402 203.31 230.552 202.836 230.552 202.224C230.552 201.708 230.468 201.258 230.3 200.874C230.144 200.49 229.97 200.178 229.778 199.938H225.89V198.606H233.702V199.938H231.452C231.62 200.142 231.794 200.46 231.974 200.892C232.166 201.312 232.262 201.798 232.262 202.35C232.262 202.842 232.184 203.286 232.028 203.682C231.872 204.066 231.662 204.396 231.398 204.672C231.134 204.936 230.822 205.14 230.462 205.284C230.102 205.428 229.724 205.5 229.328 205.5C229.232 205.5 229.154 205.494 229.094 205.482L231.974 209.316ZM241.868 201.522C242.48 201.522 242.972 201.594 243.344 201.738C243.716 201.882 244.058 202.068 244.37 202.296V199.938H237.404V198.606H247.628V199.938H246.044V210H244.37V207.444C244.202 207.624 243.914 207.798 243.506 207.966C243.11 208.134 242.606 208.218 241.994 208.218C241.514 208.218 241.046 208.146 240.59 208.002C240.146 207.846 239.75 207.624 239.402 207.336C239.054 207.036 238.772 206.67 238.556 206.238C238.352 205.806 238.25 205.302 238.25 204.726C238.25 204.21 238.34 203.754 238.52 203.358C238.712 202.962 238.97 202.632 239.294 202.368C239.618 202.092 239.996 201.882 240.428 201.738C240.872 201.594 241.352 201.522 241.868 201.522ZM239.996 204.798C239.996 205.158 240.056 205.47 240.176 205.734C240.296 205.986 240.452 206.196 240.644 206.364C240.848 206.52 241.082 206.634 241.346 206.706C241.61 206.778 241.886 206.814 242.174 206.814C242.306 206.814 242.444 206.802 242.588 206.778C242.732 206.754 242.87 206.724 243.002 206.688L240.572 203.412C240.392 203.556 240.248 203.748 240.14 203.988C240.044 204.216 239.996 204.486 239.996 204.798ZM244.388 203.88C244.16 203.604 243.848 203.376 243.452 203.196C243.056 203.004 242.624 202.908 242.156 202.908C242.024 202.908 241.898 202.914 241.778 202.926C241.658 202.938 241.55 202.962 241.454 202.998L243.83 206.22C243.998 206.088 244.13 205.938 244.226 205.77C244.334 205.59 244.388 205.38 244.388 205.14V203.88ZM253.565 211.872C252.713 211.8 251.963 211.65 251.315 211.422C250.679 211.194 250.139 210.894 249.695 210.522C249.263 210.162 248.933 209.748 248.705 209.28C248.489 208.8 248.381 208.284 248.381 207.732C248.381 207.252 248.465 206.844 248.633 206.508C248.801 206.16 248.999 205.872 249.227 205.644C248.987 205.404 248.765 205.122 248.561 204.798C248.357 204.474 248.255 204.084 248.255 203.628C248.255 203.292 248.315 202.992 248.435 202.728C248.567 202.464 248.741 202.248 248.957 202.08C249.173 201.9 249.419 201.768 249.695 201.684C249.983 201.588 250.289 201.54 250.613 201.54H253.007V199.938H247.265V198.606H256.733V199.938H254.663V202.872H251.207C250.859 202.872 250.565 202.938 250.325 203.07C250.085 203.19 249.965 203.442 249.965 203.826C249.965 204.042 250.007 204.246 250.091 204.438C250.175 204.618 250.277 204.774 250.397 204.906C250.685 204.75 250.997 204.642 251.333 204.582C251.669 204.522 252.011 204.492 252.359 204.492C252.875 204.492 253.343 204.564 253.763 204.708C254.183 204.852 254.537 205.05 254.825 205.302C255.113 205.554 255.335 205.854 255.491 206.202C255.647 206.55 255.725 206.922 255.725 207.318C255.725 207.702 255.641 208.068 255.473 208.416C255.317 208.752 255.137 209.022 254.933 209.226L253.619 208.434C253.751 208.29 253.859 208.128 253.943 207.948C254.039 207.768 254.087 207.57 254.087 207.354C254.087 207.174 254.051 206.994 253.979 206.814C253.919 206.634 253.817 206.478 253.673 206.346C253.541 206.202 253.361 206.088 253.133 206.004C252.905 205.92 252.629 205.878 252.305 205.878C251.645 205.878 251.111 206.052 250.703 206.4C250.295 206.748 250.091 207.21 250.091 207.786C250.091 208.134 250.151 208.458 250.271 208.758C250.403 209.058 250.619 209.328 250.919 209.568C251.219 209.808 251.615 210.012 252.107 210.18C252.611 210.348 253.235 210.468 253.979 210.54L253.565 211.872ZM251.048 210.486C251.252 210.258 251.552 210.072 251.948 209.928C252.344 209.772 252.758 209.694 253.19 209.694C253.622 209.694 254.012 209.76 254.36 209.892C254.696 210.012 254.984 210.186 255.224 210.414C255.452 210.642 255.626 210.906 255.746 211.206C255.866 211.506 255.926 211.83 255.926 212.178C255.926 212.574 255.848 212.934 255.692 213.258C255.548 213.594 255.338 213.882 255.062 214.122C254.786 214.362 254.444 214.548 254.036 214.68C253.628 214.824 253.172 214.896 252.668 214.896C251.768 214.896 250.904 214.68 250.076 214.248C249.236 213.828 248.51 213.222 247.898 212.43L248.96 211.494C249.548 212.166 250.136 212.67 250.724 213.006C251.3 213.354 251.912 213.528 252.56 213.528C253.1 213.528 253.514 213.396 253.802 213.132C254.078 212.88 254.216 212.556 254.216 212.16C254.216 211.812 254.12 211.536 253.928 211.332C253.724 211.14 253.43 211.044 253.046 211.044C252.818 211.044 252.602 211.086 252.398 211.17C252.182 211.266 251.99 211.386 251.822 211.53L251.048 210.486ZM259.938 199.938V204.168H263.394V199.938H259.938ZM259.938 206.85C259.878 206.922 259.758 206.994 259.578 207.066C259.41 207.138 259.206 207.174 258.966 207.174C258.714 207.174 258.468 207.132 258.228 207.048C258 206.952 257.796 206.82 257.616 206.652C257.448 206.484 257.31 206.286 257.202 206.058C257.094 205.818 257.04 205.554 257.04 205.266C257.04 204.918 257.142 204.648 257.346 204.456C257.55 204.264 257.808 204.168 258.12 204.168H258.282V199.938H256.23V198.606H266.652V199.938H265.068V210H263.394V205.518H259.938V206.85ZM261.011 212.16C261.011 211.416 261.257 210.816 261.749 210.36C262.241 209.916 262.949 209.694 263.873 209.694C264.449 209.694 264.983 209.796 265.475 210C265.955 210.204 266.405 210.492 266.825 210.864C267.257 211.248 267.653 211.704 268.013 212.232C268.373 212.772 268.715 213.372 269.039 214.032L267.761 214.77C267.509 214.266 267.245 213.792 266.969 213.348C266.693 212.904 266.405 212.508 266.105 212.16C265.793 211.824 265.463 211.554 265.115 211.35C264.767 211.158 264.395 211.062 263.999 211.062C263.543 211.062 263.207 211.17 262.991 211.386C262.763 211.602 262.649 211.872 262.649 212.196C262.649 212.532 262.769 212.796 263.009 212.988C263.237 213.192 263.531 213.294 263.891 213.294C264.191 213.294 264.431 213.246 264.611 213.15L265.151 214.356C264.947 214.452 264.743 214.524 264.539 214.572C264.335 214.62 264.077 214.644 263.765 214.644C263.357 214.644 262.985 214.578 262.649 214.446C262.313 214.326 262.025 214.152 261.785 213.924C261.533 213.708 261.341 213.444 261.209 213.132C261.077 212.832 261.011 212.508 261.011 212.16ZM284.249 199.938V210H282.575V206.958C282.395 207.126 282.119 207.282 281.747 207.426C281.375 207.57 280.877 207.642 280.253 207.642C279.737 207.642 279.233 207.564 278.741 207.408C278.249 207.24 277.805 206.988 277.409 206.652C277.025 206.304 276.701 205.872 276.437 205.356C276.185 204.828 276.035 204.21 275.987 203.502C275.843 203.358 275.609 203.286 275.285 203.286C274.097 203.286 273.461 204.324 273.377 206.4H271.721C271.721 205.908 271.757 205.434 271.829 204.978C271.901 204.51 271.997 204.138 272.117 203.862C271.937 203.682 271.715 203.544 271.451 203.448C271.187 203.34 270.917 203.286 270.641 203.286C270.101 203.286 269.663 203.43 269.327 203.718C269.003 204.006 268.841 204.474 268.841 205.122C268.841 205.554 268.925 205.962 269.093 206.346C269.261 206.73 269.483 207.09 269.759 207.426C270.035 207.75 270.353 208.044 270.713 208.308C271.085 208.572 271.463 208.806 271.847 209.01L270.821 210.234C270.329 209.982 269.861 209.682 269.417 209.334C268.973 208.974 268.577 208.578 268.229 208.146C267.893 207.702 267.623 207.222 267.419 206.706C267.227 206.19 267.131 205.644 267.131 205.068C267.131 204.516 267.215 204.042 267.383 203.646C267.563 203.238 267.803 202.908 268.103 202.656C268.403 202.392 268.745 202.2 269.129 202.08C269.525 201.96 269.939 201.9 270.371 201.9C270.887 201.9 271.337 201.99 271.721 202.17C272.105 202.338 272.453 202.572 272.765 202.872C272.993 202.596 273.293 202.374 273.665 202.206C274.049 202.026 274.505 201.936 275.033 201.936C275.585 201.936 276.035 202.038 276.383 202.242C276.743 202.434 277.049 202.704 277.301 203.052C277.853 202.956 278.243 202.782 278.471 202.53C278.711 202.278 278.831 201.942 278.831 201.522C278.831 201.21 278.765 200.922 278.633 200.658C278.501 200.394 278.333 200.154 278.129 199.938H266.285V198.606H285.815V199.938H284.249ZM282.575 205.32V199.938H279.821C280.001 200.142 280.163 200.394 280.307 200.694C280.463 200.994 280.541 201.336 280.541 201.72C280.541 202.512 280.283 203.13 279.767 203.574C279.251 204.018 278.561 204.27 277.697 204.33C277.793 204.87 278.063 205.326 278.507 205.698C278.963 206.058 279.569 206.238 280.325 206.238C280.829 206.238 281.279 206.148 281.675 205.968C282.071 205.788 282.371 205.572 282.575 205.32ZM295.823 211.872C294.971 211.8 294.221 211.65 293.573 211.422C292.937 211.194 292.397 210.894 291.953 210.522C291.521 210.162 291.191 209.748 290.963 209.28C290.747 208.8 290.639 208.284 290.639 207.732C290.639 207.252 290.723 206.844 290.891 206.508C291.059 206.16 291.257 205.872 291.485 205.644C291.245 205.404 291.023 205.122 290.819 204.798C290.615 204.474 290.513 204.084 290.513 203.628C290.513 203.292 290.573 202.992 290.693 202.728C290.825 202.464 290.999 202.248 291.215 202.08C291.431 201.9 291.677 201.768 291.953 201.684C292.241 201.588 292.547 201.54 292.871 201.54H295.265V199.938H289.523V198.606H298.991V199.938H296.921V202.872H293.465C293.117 202.872 292.823 202.938 292.583 203.07C292.343 203.19 292.223 203.442 292.223 203.826C292.223 204.042 292.265 204.246 292.349 204.438C292.433 204.618 292.535 204.774 292.655 204.906C292.943 204.75 293.255 204.642 293.591 204.582C293.927 204.522 294.269 204.492 294.617 204.492C295.133 204.492 295.601 204.564 296.021 204.708C296.441 204.852 296.795 205.05 297.083 205.302C297.371 205.554 297.593 205.854 297.749 206.202C297.905 206.55 297.983 206.922 297.983 207.318C297.983 207.702 297.899 208.068 297.731 208.416C297.575 208.752 297.395 209.022 297.191 209.226L295.877 208.434C296.009 208.29 296.117 208.128 296.201 207.948C296.297 207.768 296.345 207.57 296.345 207.354C296.345 207.174 296.309 206.994 296.237 206.814C296.177 206.634 296.075 206.478 295.931 206.346C295.799 206.202 295.619 206.088 295.391 206.004C295.163 205.92 294.887 205.878 294.563 205.878C293.903 205.878 293.369 206.052 292.961 206.4C292.553 206.748 292.349 207.21 292.349 207.786C292.349 208.134 292.409 208.458 292.529 208.758C292.661 209.058 292.877 209.328 293.177 209.568C293.477 209.808 293.873 210.012 294.365 210.18C294.869 210.348 295.493 210.468 296.237 210.54L295.823 211.872ZM297.326 196.068C297.326 195.828 297.422 195.6 297.614 195.384C297.806 195.168 298.052 195.06 298.352 195.06C298.664 195.06 298.91 195.168 299.09 195.384C299.282 195.6 299.378 195.828 299.378 196.068C299.378 196.356 299.282 196.602 299.09 196.806C298.91 196.998 298.664 197.094 298.352 197.094C298.052 197.094 297.806 196.998 297.614 196.806C297.422 196.602 297.326 196.356 297.326 196.068ZM296.786 199.164H295.67L294.266 198.084C294.038 197.904 293.834 197.76 293.654 197.652C293.474 197.544 293.3 197.46 293.132 197.4C292.952 197.34 292.778 197.298 292.61 197.274C292.442 197.25 292.256 197.238 292.052 197.238C291.848 197.238 291.638 197.262 291.422 197.31C291.206 197.358 291.026 197.412 290.882 197.472L290.45 196.23C290.63 196.134 290.858 196.05 291.134 195.978C291.41 195.906 291.692 195.87 291.98 195.87C292.532 195.87 293.03 195.99 293.474 196.23C293.906 196.458 294.338 196.818 294.77 197.31L295.526 198.156H295.598L295.076 196.788C294.788 196.056 294.422 195.546 293.978 195.258C293.534 194.958 293.018 194.808 292.43 194.808C292.286 194.808 292.136 194.814 291.98 194.826C291.824 194.838 291.68 194.856 291.548 194.88L291.386 193.476C291.518 193.452 291.698 193.428 291.926 193.404C292.142 193.38 292.334 193.368 292.502 193.368C293.45 193.368 294.2 193.608 294.752 194.088C295.292 194.556 295.7 195.27 295.976 196.23L296.786 199.164Z" fill="#222222"/>
<path opacity="0.6" d="M48.628 145H46.576L40.402 135.658V145H38.35V132.472H40.402L46.576 141.796V132.472H48.628V145ZM55.6247 145.162C54.6887 145.162 53.8427 144.952 53.0867 144.532C52.3307 144.1 51.7367 143.5 51.3047 142.732C50.8727 141.952 50.6567 141.052 50.6567 140.032C50.6567 139.024 50.8787 138.13 51.3227 137.35C51.7667 136.57 52.3727 135.97 53.1407 135.55C53.9087 135.13 54.7667 134.92 55.7147 134.92C56.6627 134.92 57.5207 135.13 58.2887 135.55C59.0567 135.97 59.6627 136.57 60.1067 137.35C60.5507 138.13 60.7727 139.024 60.7727 140.032C60.7727 141.04 60.5447 141.934 60.0887 142.714C59.6327 143.494 59.0087 144.1 58.2167 144.532C57.4367 144.952 56.5727 145.162 55.6247 145.162ZM55.6247 143.38C56.1527 143.38 56.6447 143.254 57.1007 143.002C57.5687 142.75 57.9467 142.372 58.2347 141.868C58.5227 141.364 58.6667 140.752 58.6667 140.032C58.6667 139.312 58.5287 138.706 58.2527 138.214C57.9767 137.71 57.6107 137.332 57.1547 137.08C56.6987 136.828 56.2067 136.702 55.6787 136.702C55.1507 136.702 54.6587 136.828 54.2027 137.08C53.7587 137.332 53.4047 137.71 53.1407 138.214C52.8767 138.706 52.7447 139.312 52.7447 140.032C52.7447 141.1 53.0147 141.928 53.5547 142.516C54.1067 143.092 54.7967 143.38 55.6247 143.38ZM71.7832 135.082V145H69.7312V143.83C69.4072 144.238 68.9812 144.562 68.4532 144.802C67.9372 145.03 67.3852 145.144 66.7972 145.144C66.0172 145.144 65.3152 144.982 64.6912 144.658C64.0792 144.334 63.5932 143.854 63.2332 143.218C62.8852 142.582 62.7112 141.814 62.7112 140.914V135.082H64.7452V140.608C64.7452 141.496 64.9672 142.18 65.4112 142.66C65.8552 143.128 66.4612 143.362 67.2292 143.362C67.9972 143.362 68.6032 143.128 69.0472 142.66C69.5032 142.18 69.7312 141.496 69.7312 140.608V135.082H71.7832ZM79.4946 134.92C80.2746 134.92 80.9706 135.082 81.5826 135.406C82.2066 135.73 82.6926 136.21 83.0406 136.846C83.3886 137.482 83.5626 138.25 83.5626 139.15V145H81.5286V139.456C81.5286 138.568 81.3066 137.89 80.8626 137.422C80.4186 136.942 79.8126 136.702 79.0446 136.702C78.2766 136.702 77.6646 136.942 77.2086 137.422C76.7646 137.89 76.5426 138.568 76.5426 139.456V145H74.4906V135.082H76.5426V136.216C76.8786 135.808 77.3046 135.49 77.8206 135.262C78.3486 135.034 78.9066 134.92 79.4946 134.92Z" fill="#222222"/>
<path d="M223.228 61.3318C223.898 60.6059 224.54 59.894 225.154 59.1961C225.768 58.4702 226.34 57.7863 226.871 57.1442C229.134 54.5416 232.338 55.4691 235.707 55.4691C234.227 57.1721 232.775 58.8053 231.352 60.3686C229.956 61.9041 228.42 63.4954 226.745 65.1425C227.583 65.8963 228.448 66.8036 229.341 67.8645C230.235 68.8974 231.1 69.9723 231.938 71.089C232.775 72.2057 233.543 73.3224 234.241 74.4391C234.939 75.5558 235.525 76.5748 236 77.496H228.839C228.392 76.7702 227.876 75.9745 227.29 75.1091C226.731 74.2157 226.131 73.3363 225.489 72.4709C224.847 71.5775 224.163 70.726 223.437 69.9164C222.739 69.1068 222.041 68.4228 221.343 67.8645V77.496H215.104V46.0051L221.343 45C221.289 57.3706 219.069 66.0326 223.228 61.3318Z" fill="#505050"/>
<path d="M208.75 60.316C206.689 60.0215 205.933 60.1304 204.332 60.6105L204.092 77.5019H197.853V56.6475C205.511 54.4252 208.407 54.3312 212.874 56.1925C212.304 58.9955 210.812 60.6105 208.75 60.316Z" fill="#505050"/>
<path d="M185.973 73.044C186.587 73.044 187.174 73.0301 187.732 73.0021C188.29 72.9742 188.737 72.9324 189.072 72.8765V68.1445C188.821 68.0887 188.444 68.0328 187.941 67.977C187.439 67.9212 186.978 67.8932 186.559 67.8932C185.973 67.8932 185.415 67.9351 184.884 68.0189C184.382 68.0747 183.935 68.2003 183.544 68.3958C183.153 68.5912 182.846 68.8564 182.623 69.1914C182.4 69.5264 182.288 69.9452 182.288 70.4477C182.288 71.4248 182.609 72.1088 183.251 72.4996C183.921 72.8626 184.829 73.044 185.973 73.044ZM185.471 54.7859C187.313 54.7859 188.849 54.9953 190.077 55.4141C191.305 55.8329 192.283 56.4331 193.008 57.2148C193.762 57.9965 194.293 58.9457 194.6 60.0624C194.907 61.1791 195.06 62.4214 195.06 63.7894V76.771C194.167 76.9664 192.925 77.1898 191.333 77.441C189.742 77.7202 187.816 77.8598 185.554 77.8598C184.131 77.8598 182.832 77.7342 181.66 77.4829C180.515 77.2317 179.524 76.8268 178.687 76.2685C177.849 75.6822 177.207 74.9285 176.76 74.0072C176.314 73.0859 176.09 71.9552 176.09 70.6152C176.09 69.331 176.342 68.2422 176.844 67.3488C177.375 66.4555 178.072 65.7436 178.938 65.2132C179.803 64.6827 180.794 64.3058 181.911 64.0825C183.028 63.8312 184.186 63.7056 185.387 63.7056C186.196 63.7056 186.908 63.7475 187.523 63.8312C188.165 63.8871 188.681 63.9708 189.072 64.0825V63.4962C189.072 62.4354 188.751 61.5839 188.109 60.9418C187.467 60.2997 186.35 59.9786 184.759 59.9786C183.698 59.9786 182.651 60.0624 181.618 60.2299C177.981 60.7214 178.731 59.5522 178.142 55.8329C178.505 55.7212 178.952 55.6095 179.482 55.4978C180.041 55.3583 180.641 55.2466 181.283 55.1628C181.925 55.0512 182.595 54.9674 183.293 54.9116C184.019 54.8278 184.745 54.7859 185.471 54.7859Z" fill="#505050"/>
<path d="M176.699 48.5345C176.699 48.5345 176.699 51.2085 176.699 52.5223C176.699 53.8362 175.636 54.1307 175.047 54.1041C174.458 54.0774 167.947 54.1041 167.947 54.1041V77.5548H161.414V54.1041H152.662C152.662 54.1041 152.662 53.5417 152.662 51.3193C152.662 49.0969 152.662 48.5345 156.786 48.5345C160.909 48.5345 176.699 48.5345 176.699 48.5345Z" fill="#505050"/>
<path d="M132.163 66.5532C132.163 64.599 132.456 62.896 133.042 61.4443C133.657 59.9647 134.452 58.7363 135.429 57.7592C136.407 56.7821 137.523 56.0422 138.78 55.5397C140.064 55.0372 141.376 54.7859 142.716 54.7859C145.843 54.7859 148.313 55.7491 150.128 57.6754C151.943 59.5738 152.85 62.3795 152.85 66.0926C152.85 66.4555 152.836 66.8603 152.808 67.307C152.78 67.7257 152.752 68.1026 152.724 68.4376H138.57C138.71 69.7218 139.31 70.7408 140.371 71.4946C141.432 72.2484 142.856 72.6253 144.642 72.6253C145.787 72.6253 146.904 72.5275 147.992 72.3321C151.7 71.5905 150.926 72.8164 151.552 76.6035C151.217 76.771 150.77 76.9385 150.212 77.106C149.653 77.2735 149.025 77.4131 148.327 77.5248C147.657 77.6644 146.931 77.776 146.15 77.8598C145.368 77.9436 144.586 77.9854 143.805 77.9854C141.823 77.9854 140.092 77.6923 138.612 77.106C137.16 76.5198 135.946 75.7241 134.969 74.7191C134.02 73.6861 133.308 72.4717 132.833 71.0758C132.386 69.68 132.163 68.1724 132.163 66.5532ZM146.82 64.1662C146.792 63.6358 146.694 63.1193 146.527 62.6168C146.387 62.1143 146.15 61.6676 145.815 61.2768C145.508 60.8859 145.103 60.5649 144.6 60.3136C144.126 60.0624 143.526 59.9367 142.8 59.9367C142.102 59.9367 141.502 60.0624 140.999 60.3136C140.496 60.537 140.078 60.8441 139.743 61.2349C139.408 61.6257 139.142 62.0864 138.947 62.6168C138.78 63.1193 138.654 63.6358 138.57 64.1662H146.82Z" fill="#505050"/>
<path d="M118.609 56.2467C119.746 59.5323 120.883 63.7024 122.4 67.7462C123.676 62.7403 124.165 60.5753 125.054 55.4886C126.444 49.1702 127.075 50.1811 132.955 48.5344C130.74 58.2686 128.592 67.7462 125.812 77.5547H119.471L113.985 62.6915L108.416 77.5547H102.427C100.142 70.6109 97.6318 60.796 97 58.5213C102.687 57.1313 102.939 56.8786 104.203 61.8069L105.885 67.9989L105.214 69.5153C107.028 65.4447 108.686 61.5002 109.763 58.2686C110.774 55.2358 111.004 54.6851 113.985 53.8458C116.966 53.0064 117.456 52.9159 118.609 56.2467Z" fill="#505050"/>
<path d="M98.7647 96.0118H96.7647V94.0353H98.4588C98.3804 93.8784 98.302 93.6745 98.2235 93.4235C98.1608 93.1725 98.1294 92.9216 98.1294 92.6706C98.1294 92.0745 98.2627 91.5412 98.5294 91.0706C98.7961 90.5843 99.1725 90.1765 99.6588 89.8471C100.161 89.502 100.749 89.2431 101.424 89.0706C102.098 88.8824 102.851 88.7882 103.682 88.7882C104.953 88.7882 106.114 88.9686 107.165 89.3294C108.216 89.6745 109.157 90.1216 109.988 90.6706C110.835 91.2039 111.573 91.7922 112.2 92.4353C112.827 93.0627 113.353 93.6588 113.776 94.2235L113.941 94.4824L112.2 95.5882L111.918 95.2353C111.431 94.6549 110.906 94.098 110.341 93.5647C109.776 93.0314 109.165 92.5686 108.506 92.1765C107.847 91.7686 107.141 91.4471 106.388 91.2118C105.635 90.9765 104.835 90.8588 103.988 90.8588C102.906 90.8588 102.09 91.0706 101.541 91.4941C101.008 91.9176 100.741 92.498 100.741 93.2353C100.741 93.5647 100.788 93.8314 100.882 94.0353H103.306V96.0118H101.306V109H98.7647V96.0118ZM108.295 97.8941C109.032 97.8941 109.636 97.9961 110.107 98.2C110.578 98.4039 110.978 98.6392 111.307 98.9059V96.0118H102.601V94.0353H115.848V96.0118H113.848V109H111.307V105.847C111.103 106.051 110.774 106.255 110.319 106.459C109.88 106.663 109.291 106.765 108.554 106.765C107.895 106.765 107.268 106.671 106.672 106.482C106.076 106.278 105.55 105.988 105.095 105.612C104.656 105.22 104.303 104.733 104.036 104.153C103.785 103.573 103.66 102.906 103.66 102.153C103.66 100.788 104.083 99.7373 104.931 99C105.793 98.2627 106.915 97.8941 108.295 97.8941ZM111.331 101.165C111.095 100.835 110.758 100.553 110.319 100.318C109.88 100.067 109.385 99.9412 108.836 99.9412C108.052 99.9412 107.425 100.137 106.954 100.529C106.499 100.922 106.272 101.502 106.272 102.271C106.272 103.118 106.507 103.737 106.978 104.129C107.464 104.506 108.107 104.694 108.907 104.694C109.581 104.694 110.154 104.49 110.625 104.082C111.095 103.675 111.331 103.165 111.331 102.553V101.165ZM121.565 100.976C120.718 100.976 120.098 101.188 119.706 101.612C119.33 102.035 119.142 102.6 119.142 103.306C119.142 104.153 119.314 104.984 119.659 105.8C120.004 106.616 120.475 107.478 121.071 108.388L118.836 109.376C118.208 108.482 117.667 107.518 117.212 106.482C116.773 105.431 116.553 104.318 116.553 103.141C116.553 101.729 116.953 100.671 117.753 99.9647C118.569 99.2588 119.651 98.9059 121 98.9059H124.647V96.0118H115.377V94.0353H129.189V96.0118H127.189V109H124.647V100.976H121.565ZM136.727 100.929C136.46 100.647 136.154 100.427 135.809 100.271C135.464 100.114 135.072 100.035 134.633 100.035C134.005 100.035 133.472 100.224 133.033 100.6C132.594 100.961 132.374 101.51 132.374 102.247C132.374 102.984 132.57 103.557 132.962 103.965C133.37 104.357 133.903 104.553 134.562 104.553C134.845 104.553 135.111 104.514 135.362 104.435C135.629 104.341 135.856 104.208 136.045 104.035C136.249 103.863 136.413 103.635 136.539 103.353C136.664 103.071 136.727 102.741 136.727 102.365V100.929ZM139.198 109H136.703V105.706C136.5 105.973 136.178 106.192 135.739 106.365C135.3 106.537 134.798 106.624 134.233 106.624C133.637 106.624 133.072 106.529 132.539 106.341C132.005 106.137 131.535 105.847 131.127 105.471C130.719 105.078 130.39 104.608 130.139 104.059C129.903 103.494 129.786 102.843 129.786 102.106C129.786 101.431 129.896 100.835 130.115 100.318C130.351 99.8 130.656 99.3686 131.033 99.0235C131.425 98.6784 131.872 98.4196 132.374 98.2471C132.892 98.0745 133.433 97.9882 133.998 97.9882C134.531 97.9882 135.033 98.0745 135.503 98.2471C135.99 98.4039 136.39 98.6392 136.703 98.9529V96.0118H128.727V94.0353H147.48V96.0118H139.198V99.1412C139.449 98.8275 139.817 98.5765 140.303 98.3882C140.805 98.1843 141.378 98.0824 142.021 98.0824C142.602 98.0824 143.143 98.1765 143.645 98.3647C144.147 98.5373 144.586 98.7961 144.962 99.1412C145.339 99.4863 145.637 99.9176 145.856 100.435C146.076 100.937 146.186 101.51 146.186 102.153C146.186 102.875 146.06 103.51 145.809 104.059C145.574 104.592 145.245 105.039 144.821 105.4C144.413 105.745 143.935 106.004 143.386 106.176C142.837 106.349 142.249 106.435 141.621 106.435C141.449 106.435 141.237 106.42 140.986 106.388C140.735 106.357 140.547 106.325 140.421 106.294L140.703 104.294C140.939 104.341 141.182 104.365 141.433 104.365C142.013 104.365 142.515 104.184 142.939 103.824C143.378 103.463 143.598 102.906 143.598 102.153C143.598 101.51 143.409 101.016 143.033 100.671C142.672 100.31 142.162 100.129 141.503 100.129C140.751 100.129 140.178 100.357 139.786 100.812C139.394 101.267 139.198 101.886 139.198 102.671V109ZM136.392 94.1529V93.9412C136.11 93.6902 135.812 93.3216 135.498 92.8353C135.184 92.349 135.027 91.7529 135.027 91.0471C135.027 90.5294 135.129 90.0588 135.333 89.6353C135.522 89.2118 135.788 88.851 136.133 88.5529C136.463 88.2549 136.855 88.0274 137.31 87.8706C137.765 87.698 138.251 87.6118 138.769 87.6118C139.286 87.6118 139.772 87.6667 140.227 87.7765C140.682 87.8863 141.051 88.0353 141.333 88.2235L140.745 90.0353C140.525 89.9255 140.298 89.8392 140.063 89.7765C139.812 89.7137 139.545 89.6824 139.263 89.6824C138.714 89.6824 138.274 89.8392 137.945 90.1529C137.616 90.4667 137.451 90.9373 137.451 91.5647C137.451 91.8471 137.49 92.1216 137.569 92.3882C137.647 92.6392 137.749 92.8745 137.874 93.0941C137.984 93.3137 138.11 93.5098 138.251 93.6824C138.376 93.8392 138.494 93.9725 138.604 94.0824L136.392 94.1529Z" fill="#505050"/>
<circle cx="51" cy="80" r="24" stroke="#B3B3B3" stroke-width="2"/>
<path fill-rule="evenodd" clip-rule="evenodd" d="M40.12 75.9476H40C39.2044 75.9476 38.4413 76.2636 37.8787 76.8262C37.3161 77.3889 37 78.1519 37 78.9476V81.9476C37 82.7432 37.3161 83.5063 37.8787 84.0689C38.4413 84.6315 39.2044 84.9476 40 84.9476H40.12C40.5528 84.9474 40.9806 85.0409 41.3739 85.2216C41.7672 85.4023 42.1167 85.666 42.3985 85.9946L47.8615 92.3696C48.7675 93.4256 50.5 92.7851 50.5 91.3931V69.5021C50.5 68.1101 48.7675 67.4696 47.86 68.5271L42.4 74.8991C42.1182 75.2281 41.7685 75.4922 41.3749 75.6732C40.9813 75.8542 40.5532 75.9478 40.12 75.9476ZM60.454 68.8601C60.312 68.7202 60.1436 68.6099 59.9586 68.5359C59.7735 68.4618 59.5756 68.4253 59.3763 68.4286C59.177 68.432 58.9803 68.4749 58.7979 68.5551C58.6154 68.6353 58.4507 68.751 58.3134 68.8955C58.1762 69.04 58.0691 69.2105 57.9985 69.3969C57.9278 69.5833 57.895 69.7818 57.902 69.981C57.909 70.1802 57.9556 70.376 58.0392 70.557C58.1227 70.738 58.2415 70.9005 58.3885 71.0351C63.871 76.2431 63.871 84.6521 58.3885 89.8601C58.2415 89.9946 58.1227 90.1571 58.0392 90.3381C57.9556 90.5191 57.909 90.7149 57.902 90.9141C57.895 91.1133 57.9278 91.3119 57.9985 91.4983C58.0691 91.6846 58.1762 91.8551 58.3134 91.9996C58.4507 92.1441 58.6154 92.2599 58.7979 92.34C58.9803 92.4202 59.177 92.4632 59.3763 92.4665C59.5756 92.4698 59.7735 92.4333 59.9586 92.3593C60.1436 92.2852 60.312 92.175 60.454 92.0351C67.1815 85.6451 67.1815 75.2501 60.454 68.8601V68.8601ZM56.0335 73.0601C55.7451 72.786 55.3596 72.6377 54.9618 72.6478C54.5641 72.6579 54.1866 72.8256 53.9125 73.1141C53.6384 73.4025 53.4901 73.788 53.5002 74.1857C53.5104 74.5835 53.6781 74.961 53.9665 75.2351C57.007 78.1226 57.007 82.7726 53.9665 85.6601C53.8237 85.7958 53.709 85.9583 53.629 86.1384C53.549 86.3184 53.5052 86.5124 53.5002 86.7094C53.4952 86.9063 53.529 87.1023 53.5998 87.2862C53.6705 87.4701 53.7768 87.6383 53.9125 87.7811C54.1866 88.0695 54.5641 88.2372 54.9618 88.2473C55.1588 88.2524 55.3548 88.2185 55.5387 88.1478C55.7225 88.0771 55.8907 87.9708 56.0335 87.8351C60.319 83.7641 60.319 77.1311 56.0335 73.0601V73.0601Z" fill="#505050"/>
</g>
<defs>
<filter id="filter0_d_428_3792" x="0" y="0" width="488" height="254" filterUnits="userSpaceOnUse" color-interpolation-filters="sRGB">
<feFlood flood-opacity="0" result="BackgroundImageFix"/>
<feColorMatrix in="SourceAlpha" type="matrix" values="0 0 0 0 0 0 0 0 0 0 0 0 0 0 0 0 0 0 127 0" result="hardAlpha"/>
<feOffset dx="4" dy="4"/>
<feGaussianBlur stdDeviation="4"/>
<feComposite in2="hardAlpha" operator="out"/>
<feColorMatrix type="matrix" values="0 0 0 0 0 0 0 0 0 0 0 0 0 0 0 0 0 0 0.3 0"/>
<feBlend mode="normal" in2="BackgroundImageFix" result="effect1_dropShadow_428_3792"/>
<feBlend mode="normal" in="SourceGraphic" in2="effect1_dropShadow_428_3792" result="shape"/>
</filter>
</defs>
</svg>
