<svg width="20" height="19" viewBox="0 0 20 19" fill="none" xmlns="http://www.w3.org/2000/svg">
<rect x="0.5" width="19" height="19" rx="5.66346" fill="#6C38FF"/>
<path d="M11.3243 7.08071C11.7353 8.26821 12.1464 9.77543 12.6944 11.237C13.1556 9.42769 13.3326 8.64518 13.6536 6.80669C14.156 4.52304 14.3844 4.88842 16.5095 4.29325C15.7089 7.8115 14.9324 11.237 13.9276 14.7821H11.6359L9.65313 9.41004L7.64019 14.7821H5.47579C4.64962 12.2724 3.74253 8.72495 3.51416 7.90283C5.56945 7.40043 5.66079 7.30908 6.11753 9.09033L6.72544 11.3283L6.48291 11.8764C7.13875 10.4052 7.73781 8.97947 8.12714 7.81148C8.49253 6.71533 8.57576 6.51629 9.65313 6.21293C10.7305 5.90956 10.9075 5.87686 11.3243 7.08071Z" fill="white"/>
</svg>
