<svg width="38" height="38" viewBox="0 0 38 38" fill="none" xmlns="http://www.w3.org/2000/svg">
<path fill-rule="evenodd" clip-rule="evenodd" d="M11.5313 1.64638C13.3432 1.56297 13.9209 1.54443 18.5364 1.54443C23.1519 1.54443 23.7296 1.56451 25.54 1.64638C27.3504 1.72825 28.5861 2.01711 29.6674 2.43572C30.7997 2.86359 31.8269 3.53244 32.6764 4.39746C33.5415 5.24549 34.2088 6.27116 34.6351 7.40496C35.0553 8.48623 35.3426 9.72198 35.426 11.5293C35.5094 13.3443 35.5279 13.922 35.5279 18.5359C35.5279 23.1514 35.5078 23.7292 35.426 25.5411C35.3441 27.3483 35.0553 28.5841 34.6351 29.6654C34.2088 30.7993 33.5404 31.8267 32.6764 32.676C31.8269 33.541 30.7997 34.2083 29.6674 34.6346C28.5861 35.0548 27.3504 35.3421 25.5431 35.4255C23.7296 35.5089 23.1519 35.5274 18.5364 35.5274C13.9209 35.5274 13.3432 35.5074 11.5313 35.4255C9.72401 35.3436 8.48827 35.0548 7.40699 34.6346C6.27307 34.2082 5.2457 33.5398 4.3964 32.676C3.53197 31.8274 2.86302 30.8005 2.4362 29.6669C2.01759 28.5856 1.73028 27.3499 1.64687 25.5426C1.56346 23.7276 1.54492 23.1499 1.54492 18.5359C1.54492 13.9204 1.565 13.3427 1.64687 11.5323C1.72874 9.72198 2.01759 8.48623 2.4362 7.40496C2.86365 6.27129 3.53311 5.24443 4.39795 4.39592C5.24604 3.53167 6.27238 2.86273 7.40545 2.43572C8.48672 2.01711 9.72247 1.7298 11.5297 1.64638H11.5313ZM25.4025 4.70485C23.6107 4.62298 23.0732 4.60599 18.5364 4.60599C13.9997 4.60599 13.4621 4.62298 11.6703 4.70485C10.0129 4.78054 9.11386 5.05704 8.51453 5.29029C7.7221 5.59922 7.15521 5.96531 6.5605 6.56002C5.99676 7.10846 5.56292 7.77612 5.29078 8.51404C5.05753 9.11338 4.78103 10.0124 4.70534 11.6698C4.62347 13.4617 4.60648 13.9992 4.60648 18.5359C4.60648 23.0727 4.62347 23.6102 4.70534 25.402C4.78103 27.0595 5.05753 27.9585 5.29078 28.5578C5.56264 29.2946 5.9967 29.9635 6.5605 30.5119C7.10887 31.0757 7.77771 31.5097 8.51453 31.7816C9.11386 32.0148 10.0129 32.2913 11.6703 32.367C13.4621 32.4489 13.9981 32.4659 18.5364 32.4659C23.0747 32.4659 23.6107 32.4489 25.4025 32.367C27.06 32.2913 27.959 32.0148 28.5583 31.7816C29.3507 31.4726 29.9176 31.1066 30.5123 30.5119C31.0762 29.9635 31.5102 29.2946 31.7821 28.5578C32.0153 27.9585 32.2918 27.0595 32.3675 25.402C32.4494 23.6102 32.4664 23.0727 32.4664 18.5359C32.4664 13.9992 32.4494 13.4617 32.3675 11.6698C32.2918 10.0124 32.0153 9.11338 31.7821 8.51404C31.4731 7.72162 31.107 7.15472 30.5123 6.56002C29.9639 5.99632 29.2962 5.56248 28.5583 5.29029C27.959 5.05704 27.06 4.78054 25.4025 4.70485V4.70485ZM16.3661 23.774C17.5782 24.2785 18.9278 24.3466 20.1845 23.9666C21.4412 23.5866 22.5269 22.7821 23.2564 21.6906C23.9858 20.599 24.3136 19.288 24.1839 17.9816C24.0541 16.6751 23.4748 15.4543 22.5449 14.5275C21.9521 13.9351 21.2353 13.4814 20.4462 13.1993C19.657 12.9171 18.8151 12.8134 17.9811 12.8957C17.1471 12.978 16.3417 13.2441 15.6228 13.675C14.904 14.1059 14.2897 14.6908 13.8241 15.3876C13.3584 16.0845 13.0531 16.8758 12.93 17.7048C12.807 18.5338 12.8692 19.3798 13.1123 20.1818C13.3554 20.9839 13.7734 21.722 14.336 22.3431C14.8986 22.9643 15.592 23.4529 16.3661 23.774ZM12.3608 12.3603C13.1718 11.5493 14.1346 10.906 15.1942 10.4671C16.2538 10.0282 17.3895 9.80226 18.5364 9.80226C19.6833 9.80226 20.819 10.0282 21.8787 10.4671C22.9383 10.906 23.9011 11.5493 24.7121 12.3603C25.5231 13.1713 26.1664 14.1341 26.6053 15.1937C27.0442 16.2533 27.2701 17.389 27.2701 18.5359C27.2701 19.6829 27.0442 20.8185 26.6053 21.8782C26.1664 22.9378 25.5231 23.9006 24.7121 24.7116C23.0742 26.3495 20.8527 27.2696 18.5364 27.2696C16.2201 27.2696 13.9987 26.3495 12.3608 24.7116C10.7229 23.0737 9.80275 20.8522 9.80275 18.5359C9.80275 16.2196 10.7229 13.9982 12.3608 12.3603V12.3603ZM29.2071 11.1029C29.4081 10.9133 29.5689 10.6854 29.6802 10.4325C29.7915 10.1796 29.8509 9.90698 29.855 9.63074C29.859 9.35449 29.8075 9.08024 29.7037 8.82423C29.5998 8.56821 29.4456 8.33564 29.2503 8.14029C29.0549 7.94493 28.8223 7.79075 28.5663 7.68689C28.3103 7.58302 28.0361 7.53158 27.7598 7.53561C27.4836 7.53964 27.2109 7.59905 26.9581 7.71033C26.7052 7.82162 26.4772 7.98251 26.2876 8.18348C25.9189 8.57433 25.7171 9.09348 25.7249 9.63074C25.7327 10.168 25.9496 10.681 26.3296 11.061C26.7095 11.4409 27.2226 11.6578 27.7598 11.6657C28.2971 11.6735 28.8162 11.4716 29.2071 11.1029V11.1029Z" fill="white"/>
</svg>
