<svg width="38" height="38" viewBox="0 0 38 38" fill="none" xmlns="http://www.w3.org/2000/svg">
<path d="M31.3082 4.05469H7.00122C5.716 4.05469 4.67334 5.09735 4.67334 6.38257V30.6896C4.67334 31.9748 5.716 33.0175 7.00122 33.0175H31.3082C32.5935 33.0175 33.6361 31.9748 33.6361 30.6896V6.38257C33.6361 5.09735 32.5935 4.05469 31.3082 4.05469V4.05469ZM31.3082 30.7005C15.0963 30.6968 6.99036 30.6932 6.99036 30.6896C6.99398 14.4777 6.9976 6.37171 7.00122 6.37171C23.2131 6.37533 31.3191 6.37895 31.3191 6.38257C31.3155 22.5945 31.3119 30.7005 31.3082 30.7005ZM8.96707 14.9121H13.2644V28.7346H8.96707V14.9121ZM11.1176 13.0223C12.4897 13.0223 13.6084 11.9072 13.6084 10.5315C13.6084 10.2044 13.5439 9.8805 13.4188 9.5783C13.2936 9.27611 13.1101 9.00152 12.8788 8.77023C12.6475 8.53894 12.3729 8.35547 12.0707 8.23029C11.7685 8.10512 11.4447 8.04069 11.1176 8.04069C10.7905 8.04069 10.4666 8.10512 10.1644 8.23029C9.86217 8.35547 9.58759 8.53894 9.3563 8.77023C9.12501 9.00152 8.94154 9.27611 8.81636 9.5783C8.69119 9.8805 8.62676 10.2044 8.62676 10.5315C8.62314 11.9072 9.73821 13.0223 11.1176 13.0223ZM20.2517 21.8958C20.2517 20.0928 20.5956 18.3478 22.8294 18.3478C25.0306 18.3478 25.0631 20.4078 25.0631 22.0116V28.7346H29.3569V21.1536C29.3569 17.4319 28.5532 14.5682 24.2051 14.5682C22.1162 14.5682 20.7151 15.7158 20.1395 16.8019H20.0815V14.9121H15.958V28.7346H20.2517V21.8958Z" fill="white"/>
</svg>
