<svg width="36" height="36" viewBox="0 0 36 36" fill="none" xmlns="http://www.w3.org/2000/svg">
<g opacity="0.3">
<path fill-rule="evenodd" clip-rule="evenodd" d="M7.62 13.5H7.5C6.70435 13.5 5.94129 13.8161 5.37868 14.3787C4.81607 14.9413 4.5 15.7043 4.5 16.5V19.5C4.5 20.2956 4.81607 21.0587 5.37868 21.6213C5.94129 22.1839 6.70435 22.5 7.5 22.5H7.62C8.05284 22.4998 8.48059 22.5933 8.87389 22.774C9.26719 22.9547 9.61672 23.2184 9.8985 23.547L15.3615 29.922C16.2675 30.978 18 30.3375 18 28.9455V7.0545C18 5.6625 16.2675 5.022 15.36 6.0795L9.9 12.4515C9.6182 12.7805 9.26848 13.0446 8.8749 13.2256C8.48132 13.4066 8.05321 13.5002 7.62 13.5ZM27.954 6.4125C27.812 6.27259 27.6436 6.16238 27.4586 6.0883C27.2735 6.01423 27.0756 5.97778 26.8763 5.98108C26.677 5.98438 26.4803 6.02737 26.2979 6.10753C26.1154 6.18769 25.9507 6.30341 25.8134 6.44795C25.6762 6.59248 25.5691 6.76292 25.4985 6.9493C25.4278 7.13568 25.395 7.33428 25.402 7.53347C25.409 7.73267 25.4556 7.92848 25.5392 8.10945C25.6227 8.29043 25.7415 8.45294 25.8885 8.5875C31.371 13.7955 31.371 22.2045 25.8885 27.4125C25.7415 27.547 25.6227 27.7096 25.5392 27.8905C25.4556 28.0715 25.409 28.2673 25.402 28.4665C25.395 28.6657 25.4278 28.8643 25.4985 29.0507C25.5691 29.2371 25.6762 29.4075 25.8134 29.552C25.9507 29.6966 26.1154 29.8123 26.2979 29.8925C26.4803 29.9726 26.677 30.0156 26.8763 30.0189C27.0756 30.0222 27.2735 29.9858 27.4586 29.9117C27.6436 29.8376 27.812 29.7274 27.954 29.5875C34.6815 23.1975 34.6815 12.8025 27.954 6.4125V6.4125ZM23.5335 10.6125C23.2451 10.3384 22.8596 10.1901 22.4618 10.2002C22.0641 10.2103 21.6866 10.3781 21.4125 10.6665C21.1384 10.9549 20.9901 11.3404 21.0002 11.7382C21.0104 12.1359 21.1781 12.5134 21.4665 12.7875C24.507 15.675 24.507 20.325 21.4665 23.2125C21.3237 23.3482 21.209 23.5107 21.129 23.6908C21.049 23.8708 21.0052 24.0649 21.0002 24.2618C20.9952 24.4588 21.029 24.6548 21.0998 24.8387C21.1705 25.0225 21.2768 25.1907 21.4125 25.3335C21.6866 25.6219 22.0641 25.7896 22.4618 25.7998C22.6588 25.8048 22.8548 25.771 23.0387 25.7002C23.2225 25.6295 23.3907 25.5232 23.5335 25.3875C27.819 21.3165 27.819 14.6835 23.5335 10.6125V10.6125Z" fill="black"/>
</g>
</svg>
