<svg width="38" height="38" viewBox="0 0 38 38" fill="none" xmlns="http://www.w3.org/2000/svg">
<path d="M36.8299 7.62625C35.5401 8.19778 34.1545 8.58395 32.6979 8.7585C34.2009 7.85918 35.3253 6.44374 35.8614 4.77631C34.4493 5.61506 32.9039 6.20544 31.2922 6.5218C30.2084 5.36463 28.7729 4.59763 27.2086 4.3399C25.6442 4.08217 24.0385 4.34811 22.6408 5.09645C21.2431 5.84479 20.1315 7.03365 19.4787 8.47846C18.8259 9.92326 18.6684 11.5432 19.0305 13.0867C16.1693 12.943 13.3702 12.1994 10.815 10.9039C8.2598 9.60848 6.00552 7.79024 4.19849 5.56719C3.58062 6.63302 3.22534 7.86877 3.22534 9.18483C3.22465 10.3696 3.51641 11.5362 4.07473 12.5812C4.63305 13.6261 5.44066 14.5171 6.42592 15.1751C5.28328 15.1388 4.16586 14.83 3.16664 14.2746V14.3672C3.16653 16.0289 3.74131 17.6395 4.79348 18.9256C5.84564 20.2117 7.31036 21.0942 8.93912 21.4233C7.87913 21.7102 6.76782 21.7525 5.68911 21.5469C6.14865 22.9767 7.04379 24.227 8.24921 25.1227C9.45464 26.0185 10.91 26.5149 12.4116 26.5424C9.86258 28.5434 6.7146 29.6288 3.47403 29.6241C2.9 29.6242 2.32645 29.5907 1.75635 29.5237C5.04571 31.6386 8.87477 32.761 12.7854 32.7567C26.0233 32.7567 33.2601 21.7925 33.2601 12.2835C33.2601 11.9745 33.2524 11.6625 33.2385 11.3536C34.6462 10.3356 35.8612 9.075 36.8268 7.63088L36.8299 7.62625V7.62625Z" fill="white"/>
</svg>
