<svg width="198" height="47" viewBox="0 0 198 47" fill="none" xmlns="http://www.w3.org/2000/svg">
<path d="M179.806 23.264C180.761 22.2301 181.676 21.216 182.55 20.2218C183.425 19.1878 184.241 18.2135 184.996 17.2989C188.22 13.5917 192.783 14.9128 197.583 14.9128C195.475 17.3387 193.407 19.6651 191.379 21.892C189.39 24.0793 187.203 26.346 184.817 28.6923C186.01 29.766 187.243 31.0584 188.516 32.5696C189.788 34.041 191.021 35.5721 192.214 37.1628C193.407 38.7535 194.501 40.3442 195.495 41.9349C196.489 43.5256 197.324 44.9771 198 46.2894H187.8C187.163 45.2554 186.428 44.1221 185.593 42.8893C184.797 41.6167 183.942 40.364 183.028 39.1313C182.113 37.8587 181.139 36.6458 180.105 35.4925C179.111 34.3393 178.116 33.365 177.122 32.5696V46.2894H168.234V1.43166L177.122 3.05176e-05C177.045 17.6215 173.883 29.9602 179.806 23.264Z" fill="white"/>
<path d="M159.184 21.8171C156.247 21.3975 155.17 21.5528 152.891 22.2366L152.548 46.2977H143.66V16.5914C154.569 13.4259 158.694 13.2919 165.058 15.9433C164.246 19.9361 162.121 22.2366 159.184 21.8171Z" fill="white"/>
<path d="M126.739 39.9477C127.614 39.9477 128.449 39.9278 129.245 39.888C130.04 39.8483 130.676 39.7886 131.153 39.7091V32.9685C130.795 32.8889 130.259 32.8094 129.543 32.7299C128.827 32.6503 128.171 32.6106 127.574 32.6106C126.739 32.6106 125.944 32.6702 125.188 32.7895C124.472 32.8691 123.836 33.048 123.279 33.3264C122.723 33.6048 122.285 33.9825 121.967 34.4598C121.649 34.937 121.49 35.5335 121.49 36.2493C121.49 37.6412 121.947 38.6155 122.862 39.1722C123.816 39.6892 125.109 39.9477 126.739 39.9477ZM126.023 13.9397C128.648 13.9397 130.835 14.238 132.585 14.8345C134.335 15.431 135.727 16.286 136.761 17.3995C137.834 18.513 138.59 19.8651 139.027 21.4558C139.465 23.0465 139.684 24.8161 139.684 26.7647V45.2566C138.411 45.535 136.641 45.8531 134.375 46.2111C132.108 46.6087 129.364 46.8076 126.143 46.8076C124.115 46.8076 122.265 46.6286 120.595 46.2707C118.965 45.9128 117.553 45.3362 116.36 44.5408C115.167 43.7057 114.252 42.632 113.616 41.3196C112.98 40.0073 112.661 38.3967 112.661 36.4879C112.661 34.6586 113.019 33.1077 113.735 31.8351C114.491 30.5625 115.485 29.5485 116.718 28.7929C117.951 28.0373 119.362 27.5004 120.953 27.1823C122.544 26.8244 124.194 26.6454 125.904 26.6454C127.057 26.6454 128.071 26.7051 128.946 26.8244C129.861 26.9039 130.597 27.0232 131.153 27.1823V26.3472C131.153 24.836 130.696 23.6231 129.781 22.7085C128.867 21.7938 127.276 21.3365 125.009 21.3365C123.498 21.3365 122.007 21.4558 120.535 21.6944C115.354 22.3946 116.423 20.7291 115.584 15.431C116.101 15.2719 116.738 15.1129 117.493 14.9538C118.289 14.755 119.144 14.5959 120.058 14.4766C120.973 14.3175 121.927 14.1982 122.922 14.1187C123.955 13.9994 124.989 13.9397 126.023 13.9397Z" fill="white"/>
<path d="M113.529 5.03476C113.529 5.03476 113.529 8.84371 113.529 10.7153C113.529 12.5868 112.014 13.0064 111.175 12.9684C110.336 12.9304 101.062 12.9684 101.062 12.9684V46.3731H91.7559V12.9684H79.2888C79.2888 12.9684 79.2888 12.1672 79.2888 9.00157C79.2888 5.83589 79.2888 5.03476 85.1626 5.03476C91.0364 5.03476 113.529 5.03476 113.529 5.03476Z" fill="white"/>
<path d="M50.0877 30.7017C50.0877 27.918 50.5053 25.4922 51.3404 23.4243C52.2153 21.3166 53.3486 19.5668 54.7405 18.175C56.1324 16.7831 57.7231 15.7293 59.5126 15.0135C61.3419 14.2976 63.211 13.9397 65.1198 13.9397C69.5738 13.9397 73.0932 15.3117 75.6781 18.0557C78.263 20.7599 79.5554 24.7565 79.5554 30.0456C79.5554 30.5625 79.5355 31.1392 79.4958 31.7755C79.456 32.372 79.4162 32.9088 79.3765 33.386H59.2143C59.4132 35.2153 60.2682 36.6669 61.7794 37.7406C63.2905 38.8143 65.3187 39.3512 67.8638 39.3512C69.4942 39.3512 71.0849 39.212 72.6359 38.9336C77.9176 37.8773 76.8146 39.6234 77.7062 45.018C77.229 45.2566 76.5927 45.4952 75.7974 45.7338C75.002 45.9724 74.1073 46.1713 73.1131 46.3304C72.1587 46.5292 71.1247 46.6883 70.0112 46.8076C68.8977 46.9269 67.7842 46.9865 66.6708 46.9865C63.8473 46.9865 61.3817 46.569 59.274 45.7338C57.2061 44.8987 55.4762 43.7654 54.0843 42.3337C52.7322 40.8623 51.7182 39.1324 51.0421 37.1441C50.4058 35.1557 50.0877 33.0082 50.0877 30.7017ZM70.9656 27.3016C70.9259 26.546 70.7867 25.8103 70.5481 25.0945C70.3493 24.3787 70.0112 23.7424 69.534 23.1857C69.0966 22.6289 68.5199 22.1716 67.8041 21.8137C67.1281 21.4558 66.2731 21.2768 65.2391 21.2768C64.2449 21.2768 63.3899 21.4558 62.6741 21.8137C61.9583 22.1318 61.3618 22.5693 60.8846 23.126C60.4074 23.6828 60.0296 24.3389 59.7512 25.0945C59.5126 25.8103 59.3337 26.546 59.2143 27.3016H70.9656Z" fill="white"/>
<path d="M30.7809 16.0205C32.401 20.7007 34.021 26.6409 36.1811 32.401C37.9987 25.2704 38.6961 22.1864 39.9612 14.9406C41.9413 5.94029 42.8413 7.38033 51.2169 5.03465C48.0615 18.9007 45.0014 32.401 41.0412 46.3729H32.0092L24.1948 25.2008L16.2614 46.3729H7.73114C4.47505 36.4818 0.900027 22.5007 0 19.2606C8.10024 17.2806 8.46026 16.9206 10.2603 23.9408L12.6562 32.761L11.7004 34.9211C14.2851 29.1227 16.6461 23.5038 18.1805 18.9006C19.6206 14.5805 19.9486 13.796 24.1948 12.6004C28.4409 11.4048 29.1386 11.2759 30.7809 16.0205Z" fill="white"/>
</svg>
